<?xml version="1.0" encoding="UTF-8" standalone="no"?>
<svg
   xmlns:dc="http://purl.org/dc/elements/1.1/"
   xmlns:cc="http://creativecommons.org/ns#"
   xmlns:rdf="http://www.w3.org/1999/02/22-rdf-syntax-ns#"
   xmlns:svg="http://www.w3.org/2000/svg"
   xmlns="http://www.w3.org/2000/svg"
   xmlns:sodipodi="http://sodipodi.sourceforge.net/DTD/sodipodi-0.dtd"
   xmlns:inkscape="http://www.inkscape.org/namespaces/inkscape"
   width="18.516693mm"
   height="8.7629776mm"
   viewBox="0 0 18.516693 8.7629776"
   version="1.1"
   id="svg3162"
   inkscape:version="1.0.1 (1.0.1+r73)"
   sodipodi:docname="flourish-heading-right.svg">
  <defs
     id="defs3156" />
  <sodipodi:namedview
     id="base"
     pagecolor="#ffffff"
     bordercolor="#666666"
     borderopacity="1.0"
     inkscape:pageopacity="0.0"
     inkscape:pageshadow="2"
     inkscape:zoom="1.979899"
     inkscape:cx="68.562064"
     inkscape:cy="92.913601"
     inkscape:document-units="mm"
     inkscape:current-layer="layer1"
     inkscape:document-rotation="0"
     showgrid="false"
     fit-margin-top="0"
     fit-margin-left="0"
     fit-margin-right="0"
     fit-margin-bottom="0"
     inkscape:window-width="1439"
     inkscape:window-height="1050"
     inkscape:window-x="4530"
     inkscape:window-y="0"
     inkscape:window-maximized="0" />
  <metadata
     id="metadata3159">
    <rdf:RDF>
      <cc:Work
         rdf:about="">
        <dc:format>image/svg+xml</dc:format>
        <dc:type
           rdf:resource="http://purl.org/dc/dcmitype/StillImage" />
        <dc:title></dc:title>
      </cc:Work>
    </rdf:RDF>
  </metadata>
  <g
     inkscape:label="Layer 1"
     inkscape:groupmode="layer"
     id="layer1"
     transform="translate(-104.13451,-105.23161)">
    <g
       transform="matrix(0,-0.00114567,0.00114567,0,103.72207,115.47719)"
       fill="#000000"
       stroke="none"
       id="g8008"
       style="display:inline;fill:#ffffff;fill-opacity:1">
      <path
         d="m 6282,16518 c -44,-12 -242,-115 -284,-149 -20,-16 -40,-29 -43,-29 -4,0 -25,-16 -48,-35 -23,-19 -78,-64 -122,-99 -171,-136 -478,-449 -553,-562 -63,-96 -78,-120 -88,-136 -6,-10 -20,-29 -30,-41 -11,-12 -30,-38 -44,-57 -13,-19 -28,-39 -32,-45 -4,-5 -27,-39 -49,-75 -96,-150 -132,-207 -150,-232 -11,-15 -19,-30 -19,-32 0,-3 -15,-29 -33,-58 -19,-29 -48,-84 -66,-121 -17,-38 -42,-85 -55,-105 -12,-20 -30,-55 -38,-77 -9,-22 -37,-84 -62,-137 -25,-53 -46,-102 -46,-108 0,-7 -6,-24 -14,-38 -8,-15 -24,-54 -35,-87 -11,-33 -36,-103 -57,-155 -41,-107 -92,-258 -124,-370 -11,-41 -26,-88 -31,-105 -6,-16 -12,-39 -14,-50 -26,-118 -50,-223 -65,-285 -11,-41 -24,-109 -29,-150 -6,-41 -20,-124 -31,-185 -10,-60 -20,-139 -20,-175 0,-36 -4,-81 -10,-100 -24,-92 -62,-732 -54,-920 3,-74 7,-148 10,-165 2,-16 4,-64 4,-105 1,-41 5,-122 10,-180 5,-58 12,-163 15,-235 8,-209 16,-318 25,-350 5,-16 16,-97 25,-180 17,-158 72,-559 80,-585 9,-28 45,-294 45,-330 0,-32 -1,-33 -13,-15 -8,11 -22,42 -33,68 -17,43 -101,160 -185,257 -39,45 -41,48 -99,125 -62,84 -117,145 -130,145 -5,0 -10,4 -10,10 0,5 -27,38 -60,72 -32,35 -85,92 -117,126 -101,111 -243,245 -309,292 -35,25 -82,59 -105,75 -24,17 -80,49 -125,72 -45,23 -85,46 -89,52 -3,6 -14,11 -23,11 -9,0 -39,11 -67,25 -27,13 -60,25 -72,25 -12,0 -35,12 -53,26 -23,20 -38,25 -59,21 -15,-3 -33,-1 -38,4 -6,6 -95,13 -199,16 -146,5 -199,3 -229,-8 -22,-7 -46,-12 -52,-11 -22,5 -53,-18 -53,-38 0,-10 -16,-32 -35,-47 -19,-15 -35,-34 -35,-40 0,-7 -5,-13 -11,-13 -20,0 -127,-131 -196,-240 -9,-14 -29,-44 -44,-67 -16,-23 -29,-48 -29,-57 0,-9 -4,-16 -9,-16 -5,0 -14,-13 -21,-30 -7,-16 -16,-30 -21,-30 -5,0 -9,-7 -9,-16 0,-9 -9,-29 -21,-45 -33,-47 -109,-217 -144,-321 -17,-53 -36,-103 -42,-110 -5,-7 -18,-42 -28,-78 -9,-36 -22,-73 -27,-83 -5,-11 -12,-35 -14,-54 -3,-19 -10,-45 -16,-56 -12,-23 -19,-49 -44,-167 -9,-41 -19,-81 -24,-90 -9,-17 -39,-249 -46,-355 -2,-38 -9,-120 -14,-181 -13,-142 -3,-709 15,-869 3,-27 7,-72 9,-100 2,-27 7,-84 10,-125 6,-74 10,-119 21,-290 4,-47 8,-101 11,-120 3,-19 7,-75 9,-124 3,-49 7,-114 10,-145 2,-31 7,-94 10,-141 12,-199 16,-246 21,-262 3,-10 7,-47 9,-83 2,-36 11,-79 19,-96 9,-18 16,-52 16,-76 0,-49 64,-326 117,-508 19,-66 39,-136 43,-155 8,-36 26,-90 42,-126 5,-11 8,-24 7,-30 -3,-12 12,-66 22,-80 5,-5 15,-37 24,-70 20,-80 48,-158 58,-162 4,-2 7,-17 7,-32 0,-16 5,-32 11,-36 14,-8 69,-128 69,-149 0,-8 16,-37 35,-64 19,-26 35,-55 35,-62 0,-8 22,-38 50,-67 27,-29 53,-64 56,-77 3,-14 10,-25 15,-25 5,0 9,-5 9,-11 0,-8 56,-84 99,-134 65,-75 160,-138 306,-199 22,-10 58,-26 80,-37 23,-11 59,-22 80,-26 22,-3 52,-16 67,-29 17,-13 48,-25 80,-29 29,-3 62,-10 73,-14 11,-5 33,-14 49,-20 45,-19 140,-25 165,-11 12,6 62,13 111,16 48,2 100,8 115,14 14,5 38,10 52,10 15,0 55,16 90,35 35,19 68,35 73,35 18,0 97,60 131,99 19,23 39,41 46,41 6,0 22,15 35,33 12,17 49,61 81,96 55,61 69,81 124,182 12,22 29,51 37,64 9,13 16,31 16,39 0,15 12,47 51,132 11,23 19,46 19,53 0,6 7,23 16,36 9,13 13,29 9,35 -4,6 -2,16 3,23 14,18 42,107 42,135 0,13 12,57 26,99 17,49 27,103 29,155 2,45 8,84 13,87 11,7 16,42 32,221 7,69 14,132 17,140 3,8 8,31 10,50 2,19 9,40 15,47 6,7 8,31 5,52 -2,22 0,44 5,49 16,16 8,192 -16,349 -9,57 -16,118 -16,137 0,19 -4,37 -9,40 -8,5 -26,83 -22,100 1,4 -6,31 -16,60 -9,28 -16,58 -15,68 2,9 -6,31 -18,50 -11,18 -20,39 -20,46 0,8 -10,28 -22,45 -28,38 -45,67 -53,87 -4,8 -12,29 -20,45 -8,17 -17,49 -20,73 -7,41 -46,126 -93,202 -12,19 -22,41 -22,48 0,7 -12,25 -27,40 -16,15 -46,51 -67,79 -22,29 -45,54 -51,57 -7,2 -15,21 -19,40 -4,20 -10,36 -14,36 -4,0 -27,18 -52,40 -25,22 -48,40 -51,40 -3,0 -12,11 -19,25 -7,14 -29,35 -49,48 -87,55 -127,76 -147,77 -11,0 -35,13 -54,30 -18,16 -54,37 -79,46 -25,10 -51,21 -56,25 -19,14 -95,-12 -112,-37 -19,-29 -49,-31 -63,-5 -14,27 -48,36 -68,19 -35,-30 -112,-68 -143,-72 -29,-3 -39,-13 -76,-72 -24,-38 -47,-78 -52,-89 -37,-86 -86,-181 -97,-190 -65,-52 -101,-787 -44,-917 6,-13 22,-43 35,-67 14,-24 24,-50 23,-57 -2,-7 5,-21 14,-31 55,-57 70,-83 58,-98 -10,-13 -10,-19 4,-33 9,-10 16,-24 16,-30 0,-7 20,-31 43,-54 24,-24 52,-56 63,-73 46,-72 153,-185 176,-185 10,0 18,-4 18,-9 0,-12 23,-20 110,-38 104,-21 138,-19 169,10 14,14 40,32 57,40 17,9 34,23 38,32 3,9 23,24 45,34 51,22 111,84 142,147 20,41 24,62 22,126 -1,65 -7,88 -38,152 -20,42 -40,78 -45,81 -9,5 -44,75 -54,108 -3,9 -18,22 -33,29 -42,17 -139,19 -170,3 -14,-7 -31,-11 -38,-8 -19,7 -63,-24 -117,-82 -36,-38 -49,-47 -56,-37 -12,18 -23,153 -16,190 3,17 -1,67 -10,113 -10,53 -14,112 -11,159 3,41 5,100 6,129 0,30 7,67 15,82 8,16 14,38 14,51 0,13 9,39 19,59 11,20 23,58 27,84 4,32 15,56 30,70 13,12 24,30 24,40 0,9 9,19 20,22 11,3 20,10 20,17 0,6 7,19 14,29 13,17 15,17 45,0 17,-10 31,-21 31,-26 0,-4 27,-35 60,-69 36,-38 74,-90 95,-134 20,-40 42,-78 50,-84 8,-7 15,-19 15,-27 0,-8 22,-56 49,-107 26,-50 54,-109 60,-131 7,-22 21,-58 31,-80 25,-53 62,-181 66,-225 3,-40 28,-183 45,-250 13,-54 18,-425 7,-518 -5,-37 -15,-123 -23,-192 -26,-219 -46,-323 -79,-424 -13,-39 -32,-100 -41,-136 -9,-36 -22,-72 -30,-80 -7,-8 -15,-26 -18,-40 -16,-67 -34,-121 -45,-132 -7,-7 -12,-17 -12,-24 0,-21 -119,-132 -165,-153 -24,-11 -47,-26 -52,-33 -11,-17 -115,-68 -139,-68 -20,0 -100,-26 -118,-38 -20,-13 -101,-31 -137,-32 -28,0 -45,8 -70,31 -18,16 -53,42 -78,57 -53,30 -98,73 -128,123 -12,19 -38,50 -58,69 -41,41 -69,86 -60,101 4,5 -6,25 -22,44 -15,19 -40,50 -55,69 -19,23 -28,45 -28,70 0,27 -8,43 -34,69 -25,25 -37,49 -46,90 -6,30 -18,61 -26,67 -7,7 -14,22 -14,34 -1,44 -68,278 -86,297 -12,14 -17,33 -15,64 1,24 -5,60 -14,81 -8,20 -15,46 -15,58 0,21 -7,49 -48,191 -11,39 -23,84 -25,100 -6,37 -25,119 -38,161 -5,17 -9,44 -9,62 0,17 -4,33 -9,36 -5,3 -7,15 -4,25 3,11 -2,41 -11,68 -16,50 -38,251 -35,319 3,81 -13,329 -23,341 -5,6 -11,112 -13,237 -2,125 -7,231 -10,237 -7,11 -26,150 -26,189 0,14 3,106 6,205 4,99 6,241 6,315 -1,250 54,755 89,820 6,10 10,27 10,37 0,37 152,477 191,555 69,137 94,183 101,188 4,3 28,44 53,90 26,47 60,97 76,112 16,15 29,33 29,40 0,7 16,33 35,57 19,24 35,47 35,51 0,4 19,17 43,28 23,12 61,32 83,46 l 42,26 35,-28 c 19,-15 62,-47 94,-71 32,-24 90,-74 128,-110 39,-36 91,-84 115,-107 25,-22 70,-67 100,-100 30,-34 100,-109 155,-169 55,-59 123,-139 152,-177 28,-38 67,-85 87,-104 21,-20 33,-40 30,-49 -3,-8 2,-25 13,-39 22,-29 33,-46 74,-111 18,-27 39,-61 48,-75 9,-14 30,-51 46,-83 16,-32 32,-60 36,-63 10,-6 105,-203 140,-292 37,-92 149,-426 179,-532 23,-80 82,-316 99,-390 8,-39 15,-69 27,-115 27,-111 60,-286 69,-370 6,-57 20,-161 34,-250 41,-264 50,-365 65,-735 2,-52 10,-151 17,-220 6,-69 13,-143 14,-165 2,-22 6,-65 10,-95 3,-30 8,-84 10,-120 2,-36 8,-90 13,-120 6,-30 10,-62 10,-70 0,-44 24,-235 30,-240 4,-3 8,-59 9,-125 1,-66 12,-210 23,-320 11,-110 25,-252 30,-315 5,-63 11,-133 14,-155 23,-193 23,-2137 1,-2355 -4,-30 -8,-86 -11,-125 -2,-38 -9,-107 -15,-153 -5,-46 -7,-92 -4,-103 4,-11 0,-25 -8,-33 -8,-9 -21,-64 -31,-133 -9,-65 -24,-160 -33,-211 -13,-72 -14,-98 -5,-112 8,-14 8,-20 0,-22 -17,-6 -37,-86 -31,-125 6,-35 -11,-157 -29,-205 -12,-32 -21,-130 -20,-224 1,-71 30,-154 53,-154 17,0 69,-53 69,-70 0,-25 66,-73 90,-65 10,3 28,0 39,-7 16,-10 31,-10 78,1 122,27 139,30 188,31 47,1 54,5 109,57 54,50 60,59 58,93 -2,20 6,78 18,129 11,50 20,104 20,121 0,17 6,33 13,35 7,3 13,28 15,62 2,32 7,60 12,63 5,3 13,65 19,138 6,74 14,139 18,145 4,7 9,41 10,77 2,36 10,79 18,95 9,19 11,42 6,64 -6,31 5,110 21,151 12,29 19,93 32,283 13,201 11,337 -7,348 -5,4 -7,15 -3,24 3,9 1,26 -5,37 -9,16 -7,24 10,39 20,18 20,22 6,49 -17,32 -19,68 -6,89 5,8 4,26 -5,46 -15,36 -13,69 5,103 9,18 10,31 2,50 -6,15 -10,59 -10,97 1,39 -1,98 -5,131 -6,52 -5,62 9,68 14,5 15,9 6,20 -23,27 -30,74 -15,87 9,7 12,20 8,32 -10,31 -12,200 -3,212 4,6 3,48 -2,95 -11,106 -11,98 -4,139 3,19 0,40 -7,48 -8,10 -8,19 2,37 10,19 10,38 2,86 -8,46 -8,66 0,80 9,14 9,22 0,32 -8,11 -9,25 -1,52 11,39 4,97 -14,108 -7,4 -6,16 2,36 10,23 10,56 3,139 -5,59 -10,117 -10,128 0,11 -3,85 -7,165 -6,116 -4,156 8,202 9,31 13,66 10,77 -3,11 4,44 15,73 10,29 17,58 15,65 -2,6 7,34 21,62 14,28 26,58 26,68 0,10 7,26 15,36 7,11 11,25 8,33 -3,8 0,21 7,29 7,8 16,63 21,123 5,61 15,121 24,138 8,16 15,40 15,54 0,13 11,54 24,90 13,36 34,99 46,140 13,41 31,93 41,115 10,22 17,47 16,55 -2,13 56,143 84,190 5,8 19,35 30,60 73,165 146,268 207,291 24,9 137,11 267,5 25,-2 56,-13 80,-29 22,-15 45,-27 53,-27 7,0 18,-11 24,-25 6,-14 16,-25 22,-25 6,0 27,-16 46,-35 19,-20 45,-45 58,-57 12,-12 22,-27 22,-34 0,-6 7,-14 15,-18 8,-3 15,-13 15,-23 0,-10 9,-24 20,-31 13,-8 20,-23 20,-42 0,-20 5,-30 15,-30 8,0 15,-6 15,-12 1,-7 9,-31 20,-53 11,-22 19,-47 20,-56 0,-8 7,-24 15,-35 8,-10 15,-30 15,-44 0,-14 7,-34 15,-44 8,-11 15,-30 15,-42 0,-12 7,-38 15,-58 9,-20 13,-41 10,-46 -3,-5 -1,-11 5,-15 5,-3 10,-26 10,-49 0,-24 7,-57 15,-72 8,-16 15,-40 15,-54 0,-14 7,-47 15,-75 9,-27 16,-77 16,-110 1,-33 6,-71 12,-85 10,-26 12,-374 2,-465 -6,-52 -21,-184 -29,-245 -2,-19 -10,-60 -16,-90 -7,-30 -14,-62 -15,-70 -1,-8 -4,-22 -7,-30 -4,-8 -14,-42 -24,-75 -9,-33 -20,-64 -24,-70 -4,-5 -12,-45 -19,-88 -15,-105 -45,-173 -92,-207 -38,-27 -141,-153 -137,-167 3,-12 -29,-80 -41,-87 -6,-4 -11,-15 -11,-25 0,-11 -9,-21 -21,-24 -12,-3 -18,-10 -14,-16 3,-6 -13,-30 -36,-53 -40,-40 -46,-43 -95,-42 -35,0 -60,6 -71,17 -64,59 -87,86 -99,112 -8,17 -18,37 -23,45 -42,67 -88,206 -98,292 -3,29 -10,56 -15,59 -6,4 -11,38 -14,78 -2,39 -8,79 -13,89 -5,10 -10,36 -10,58 1,21 -4,59 -9,84 -13,56 -14,140 -3,140 5,0 11,-17 14,-38 3,-20 11,-66 16,-102 12,-74 54,-185 82,-216 10,-11 19,-31 19,-45 0,-31 17,-49 45,-49 12,0 30,-9 39,-19 10,-11 44,-29 77,-41 33,-13 62,-27 65,-31 13,-21 134,4 206,42 26,14 78,67 78,79 0,14 42,83 67,111 13,14 33,52 44,85 20,57 47,114 60,124 3,3 6,21 6,40 0,19 10,67 23,105 25,75 28,155 17,355 -4,82 -12,123 -36,189 -17,46 -31,97 -31,114 0,20 -10,38 -31,58 -17,16 -28,33 -25,38 3,5 -2,19 -12,32 -9,13 -34,58 -55,99 -26,53 -53,90 -89,122 -120,107 -126,111 -181,115 -29,3 -61,8 -72,13 -35,15 -109,30 -140,30 -16,-1 -45,0 -63,0 -25,1 -53,-13 -119,-60 -47,-34 -92,-64 -99,-67 -8,-3 -14,-11 -14,-17 0,-7 -16,-28 -35,-48 -39,-39 -145,-240 -145,-274 0,-13 -5,-35 -11,-51 -6,-15 -12,-46 -15,-68 -2,-22 -8,-67 -14,-100 -6,-33 -9,-90 -8,-127 2,-50 -1,-71 -14,-85 -14,-15 -15,-32 -8,-118 5,-55 11,-136 14,-180 3,-44 11,-120 17,-170 6,-49 13,-119 16,-155 2,-36 9,-69 14,-74 5,-6 9,-35 9,-65 0,-31 7,-85 16,-121 8,-36 19,-85 24,-110 10,-52 38,-133 69,-205 13,-27 28,-63 35,-80 7,-16 25,-55 39,-85 14,-30 29,-66 32,-79 4,-14 24,-50 43,-80 20,-31 35,-59 34,-64 -1,-4 10,-12 25,-19 35,-14 103,-45 123,-57 8,-4 35,-18 60,-29 70,-33 261,-55 275,-32 3,6 18,7 31,4 14,-4 35,-2 47,4 32,15 136,52 145,51 19,-3 32,4 81,46 60,51 133,140 151,185 7,17 16,30 21,30 5,0 9,6 9,14 0,7 11,30 25,50 14,20 25,42 25,47 0,6 8,23 19,37 10,15 23,43 29,62 6,19 18,58 27,85 9,28 23,77 31,110 8,33 20,69 26,80 11,19 32,95 62,230 8,33 20,74 26,90 7,17 13,57 15,90 2,33 10,93 19,134 8,40 13,78 10,82 -3,5 2,23 10,41 9,17 16,54 16,82 0,28 6,60 14,71 7,11 16,31 19,45 7,27 21,252 19,283 -3,25 -3,53 -1,147 0,47 -3,96 -9,110 -5,14 -7,39 -5,57 3,17 1,39 -5,49 -6,10 -6,29 -1,46 6,21 3,39 -8,63 -12,25 -14,40 -7,56 10,22 -3,111 -20,138 -5,8 -11,26 -12,40 -11,114 -42,260 -64,297 -10,17 -21,44 -24,60 -4,16 -22,54 -41,84 -18,30 -54,97 -80,148 -26,50 -66,113 -88,139 -23,25 -42,49 -42,54 0,4 -21,25 -46,47 -47,42 -111,75 -215,112 -32,11 -77,29 -99,39 -22,10 -65,27 -95,36 -30,10 -62,24 -71,31 -9,8 -19,11 -22,7 -4,-3 -19,0 -33,7 -19,11 -27,11 -32,3 -5,-8 -68,-14 -182,-19 -229,-9 -256,-19 -381,-146 -91,-91 -128,-140 -166,-213 -11,-22 -38,-71 -58,-110 -56,-105 -85,-164 -85,-175 0,-16 -41,-85 -57,-93 -18,-11 -31,-44 -49,-132 -22,-105 -34,-145 -43,-145 -4,0 -11,51 -14,114 -4,63 -14,141 -22,174 -9,32 -18,106 -21,163 -16,300 -24,401 -34,414 -9,12 -19,75 -24,156 -2,31 -8,64 -13,75 -9,17 -18,83 -28,194 -1,19 -5,64 -9,100 -4,36 -8,86 -10,111 -2,25 -8,55 -14,66 -6,11 -9,23 -5,26 3,3 2,14 -2,24 -5,10 -9,36 -11,58 -2,22 -10,65 -18,95 -8,30 -29,118 -45,194 -17,76 -37,146 -44,155 -19,22 -26,55 -16,74 6,10 2,33 -11,67 -11,28 -23,76 -26,108 -7,67 -41,201 -55,218 -14,17 -31,101 -35,169 -2,33 -9,112 -14,175 -14,155 -14,155 0,233 10,50 10,73 2,90 -13,25 -18,75 -9,97 3,8 8,35 12,60 4,25 9,60 12,77 3,18 2,41 -2,50 -4,10 -9,52 -12,93 -2,41 -8,90 -14,108 -10,30 -15,113 -24,402 -2,76 -27,254 -40,288 -2,7 -7,58 -10,115 -3,56 -11,136 -17,177 -6,41 -12,109 -14,150 -2,41 -5,89 -8,105 -4,17 -8,91 -11,165 -3,74 -8,158 -11,185 -2,28 -6,84 -8,125 -2,41 -7,102 -11,136 -5,44 -4,68 6,85 13,24 14,188 3,328 -7,73 -7,70 6,186 12,117 40,286 49,300 3,6 6,64 6,130 0,99 3,126 18,148 10,15 17,44 17,65 -2,62 23,224 35,228 7,3 10,16 7,30 -2,14 0,24 7,24 7,0 9,4 6,10 -3,5 2,21 11,35 15,24 15,25 0,19 -15,-6 -15,-3 -4,22 6,16 20,36 31,45 12,10 19,30 21,59 1,24 8,46 14,48 7,2 12,9 12,15 0,6 9,34 19,62 11,27 34,88 52,135 17,47 45,121 61,165 17,44 34,87 38,95 4,9 11,30 14,48 4,17 12,34 17,37 5,4 9,14 9,23 0,17 18,58 71,162 4,8 20,49 37,90 22,58 26,80 18,93 -8,12 -7,20 3,29 11,11 12,9 6,-11 -5,-17 -4,-22 6,-19 8,3 14,13 14,24 0,10 10,38 23,62 12,23 20,42 17,42 -4,0 15,59 36,105 28,64 49,129 49,151 0,34 23,75 55,98 14,11 48,65 76,120 28,56 58,110 68,121 9,11 23,31 29,45 14,30 29,53 61,99 43,61 91,133 91,138 0,2 27,36 60,76 33,40 84,101 113,136 43,52 158,177 215,233 8,7 28,27 45,44 18,16 59,60 91,97 33,37 63,67 67,67 7,0 38,24 118,95 25,22 53,45 62,50 9,6 40,26 70,46 66,43 128,64 166,55 34,-8 67,-12 112,-14 24,-2 32,-6 28,-16 -4,-10 15,-16 84,-25 53,-7 102,-19 122,-31 17,-11 39,-23 47,-26 25,-11 99,-87 94,-96 -3,-4 2,-8 10,-8 8,0 35,-13 59,-30 25,-16 50,-30 56,-30 6,0 16,-11 23,-24 7,-13 41,-54 75,-92 34,-38 83,-96 110,-129 26,-33 55,-66 65,-73 10,-7 18,-19 18,-26 0,-7 18,-38 40,-70 22,-31 40,-63 40,-71 0,-8 4,-16 9,-19 5,-3 30,-49 57,-101 26,-52 55,-103 63,-113 9,-9 16,-21 16,-27 1,-5 7,-23 14,-40 24,-53 39,-89 46,-115 4,-14 22,-54 41,-90 29,-56 78,-161 137,-293 9,-21 17,-45 17,-53 0,-9 18,-51 41,-95 22,-43 38,-82 35,-88 -4,-5 -2,-12 3,-15 5,-4 19,-37 31,-74 12,-37 25,-76 30,-87 5,-11 14,-38 21,-60 6,-22 18,-56 25,-75 7,-19 18,-73 24,-120 6,-47 15,-94 20,-105 9,-21 25,-137 41,-290 4,-49 7,-169 4,-265 -2,-96 -4,-191 -4,-210 0,-20 -5,-69 -11,-110 -12,-86 -19,-190 -25,-390 -6,-205 -13,-318 -19,-328 -2,-4 -7,-95 -11,-202 -7,-263 -15,-420 -20,-450 -2,-14 -7,-68 -10,-121 -7,-109 -12,-153 -20,-179 -3,-10 -1,-21 5,-25 8,-5 8,-11 1,-19 -13,-16 -53,-283 -46,-306 3,-11 -1,-20 -10,-24 -8,-3 -15,-17 -15,-32 0,-23 -54,-265 -67,-304 -6,-15 -13,-56 -17,-95 -2,-21 -14,-70 -23,-95 -3,-8 -7,-22 -9,-30 -6,-33 -26,-106 -34,-125 -5,-11 -12,-35 -15,-53 -4,-18 -13,-45 -21,-60 -8,-15 -17,-44 -20,-64 -4,-21 -10,-38 -15,-38 -5,0 -9,-9 -9,-21 0,-23 -15,-59 -69,-169 -21,-41 -44,-93 -51,-115 -7,-22 -21,-52 -31,-67 -11,-14 -19,-30 -19,-36 0,-16 -71,-145 -109,-197 -20,-27 -47,-72 -60,-98 -13,-27 -29,-51 -37,-54 -8,-3 -14,-11 -14,-17 0,-7 -18,-37 -40,-67 -22,-30 -50,-70 -64,-89 -33,-48 -118,-135 -148,-151 -32,-18 -120,-75 -135,-89 -7,-5 -16,-10 -20,-10 -5,0 -24,-13 -43,-28 -58,-47 -229,-142 -255,-142 -7,0 -25,-11 -41,-25 -16,-14 -37,-28 -46,-31 -10,-3 -18,-10 -18,-15 0,-5 -10,-9 -23,-9 -12,0 -34,-8 -47,-17 -36,-25 -182,-29 -221,-6 -16,10 -29,23 -29,29 0,7 -11,15 -25,18 -15,4 -41,28 -61,56 -25,34 -43,50 -58,50 -22,0 -66,37 -66,56 0,6 -11,21 -25,34 -14,13 -25,28 -25,33 0,5 -13,25 -30,44 -16,18 -30,45 -30,58 0,14 -11,34 -24,46 -16,14 -26,37 -31,67 -4,26 -16,67 -27,92 -11,25 -24,79 -29,120 -5,41 -18,116 -29,165 -12,55 -23,148 -26,240 -4,85 -12,161 -19,175 -22,46 -27,81 -12,94 11,9 12,32 5,129 -6,80 -5,124 2,138 6,10 8,25 4,31 -4,7 -9,34 -10,60 -1,27 -6,54 -12,61 -5,7 -12,46 -16,87 -23,244 -22,192 -19,840 1,173 1,324 1,335 -1,11 3,97 7,190 4,94 7,186 6,205 0,19 4,66 9,104 6,38 13,98 16,135 3,36 9,88 15,114 13,67 11,87 -6,87 -20,0 -19,12 4,41 21,28 43,94 65,204 10,44 21,96 26,115 5,19 11,63 14,97 6,68 63,253 78,253 5,0 20,26 34,58 14,31 30,66 35,77 5,11 20,50 33,87 12,36 30,74 40,83 9,9 26,36 38,59 11,22 38,71 60,107 33,57 42,66 61,61 24,-6 148,-127 168,-164 7,-13 26,-41 44,-63 35,-43 65,-100 65,-121 0,-8 9,-19 20,-26 11,-7 20,-18 20,-25 0,-6 9,-19 21,-27 12,-8 19,-20 16,-28 -2,-7 2,-20 9,-29 8,-8 19,-38 25,-65 18,-83 30,-158 30,-178 0,-11 4,-27 9,-36 5,-9 10,-37 11,-61 1,-24 6,-49 11,-55 5,-7 13,-58 19,-115 10,-99 13,-144 23,-325 2,-44 -2,-118 -10,-165 -7,-46 -14,-104 -14,-129 0,-25 -5,-62 -11,-84 -6,-21 -12,-57 -14,-80 -4,-49 -47,-252 -74,-351 -11,-38 -19,-77 -18,-85 2,-13 -8,-51 -44,-166 -5,-17 -9,-40 -9,-52 0,-12 -4,-22 -10,-22 -5,0 -10,-8 -10,-19 0,-10 -7,-32 -15,-47 -8,-16 -15,-36 -15,-44 0,-8 -7,-28 -15,-44 -8,-16 -14,-34 -13,-40 2,-6 -7,-25 -20,-43 -12,-17 -22,-35 -22,-41 0,-5 -16,-28 -36,-51 l -37,-42 -23,22 c -13,12 -28,37 -34,55 -6,18 -17,34 -24,37 -21,8 -27,85 -10,127 13,32 13,42 1,78 l -14,41 36,26 c 21,14 42,25 48,25 11,0 193,180 193,191 0,3 9,16 20,29 23,27 26,56 6,63 -18,7 -34,210 -18,230 11,13 6,53 -9,72 -4,6 -8,26 -8,45 -1,60 -6,94 -19,117 -7,12 -12,29 -12,38 0,30 -31,64 -66,71 -19,3 -37,10 -40,15 -3,5 -17,9 -31,9 -13,0 -37,6 -51,14 -74,38 -83,40 -102,28 -11,-7 -25,-12 -32,-12 -14,0 -48,-30 -85,-74 -20,-23 -54,-33 -95,-27 -13,1 -104,-130 -124,-179 -3,-8 -21,-51 -40,-95 -54,-126 -67,-201 -60,-330 8,-132 29,-264 51,-325 10,-25 21,-58 25,-75 9,-30 28,-83 50,-140 7,-16 14,-42 15,-57 2,-25 18,-55 82,-157 12,-20 30,-49 39,-66 28,-50 53,-78 102,-112 25,-19 49,-37 52,-41 3,-5 28,-16 55,-26 28,-10 57,-24 65,-31 8,-6 51,-21 95,-33 72,-19 85,-20 130,-8 70,19 214,88 220,106 3,8 34,35 70,60 36,25 65,47 65,50 0,3 14,21 31,40 34,38 69,101 69,124 0,7 7,16 15,20 8,3 15,11 15,18 0,7 6,24 14,38 7,14 25,47 40,74 14,27 26,58 26,70 0,32 54,227 100,361 47,135 68,219 74,285 2,25 10,90 17,145 7,55 12,109 12,120 -4,125 -4,301 -1,490 3,166 0,251 -9,305 -8,41 -18,100 -22,130 -5,30 -19,87 -31,125 -12,39 -26,94 -31,124 -6,30 -18,71 -29,90 -10,20 -31,64 -45,98 -15,34 -36,70 -46,79 -11,9 -19,27 -19,39 0,12 -15,38 -34,57 -35,36 -76,103 -76,124 0,7 -7,15 -15,18 -9,3 -21,19 -26,35 -6,17 -20,33 -31,36 -10,4 -27,20 -37,36 -9,15 -29,38 -44,49 -15,12 -27,27 -27,33 0,7 -12,24 -27,37 -16,14 -42,41 -59,61 -17,21 -49,45 -70,54 -22,9 -65,30 -96,46 -72,36 -165,69 -194,69 -13,0 -29,6 -37,14 -18,19 -134,12 -157,-9 -9,-8 -22,-15 -28,-15 -28,0 -119,-77 -152,-129 -15,-22 -18,-22 -39,-10 -20,13 -24,12 -37,-6 -8,-11 -25,-31 -38,-45 -12,-14 -26,-37 -29,-52 -4,-15 -18,-38 -32,-52 -14,-14 -25,-31 -25,-37 0,-7 -9,-22 -20,-34 -23,-24 -80,-132 -80,-151 0,-7 -6,-17 -13,-21 -11,-7 -26,-31 -65,-110 -5,-10 -16,-31 -25,-48 -50,-97 -209,-565 -238,-700 -5,-27 -14,-68 -18,-90 -5,-22 -14,-65 -21,-95 -11,-56 -14,-70 -29,-175 -57,-394 -65,-539 -64,-1075 1,-447 12,-678 53,-1075 6,-55 13,-129 15,-165 24,-303 79,-650 150,-930 10,-37 14,-83 11,-107 -4,-33 -1,-48 19,-77 13,-20 35,-60 49,-89 13,-29 31,-59 40,-66 9,-7 16,-18 16,-23 0,-5 15,-28 33,-51 18,-23 39,-55 47,-71 20,-39 58,-78 170,-175 52,-45 113,-97 134,-116 22,-20 60,-45 85,-57 26,-12 48,-25 51,-30 3,-4 37,-15 75,-24 39,-9 94,-25 123,-34 43,-15 76,-17 187,-13 89,3 135,1 135,-5 0,-15 227,-8 265,7 34,14 97,42 170,76 28,12 68,28 91,34 23,6 56,21 75,33 19,13 48,30 64,38 17,8 39,22 50,31 11,9 47,31 79,48 33,17 64,35 70,39 6,5 30,14 54,21 23,6 42,16 42,21 0,5 14,17 31,25 17,9 46,32 64,51 18,19 38,34 45,34 6,0 22,12 35,26 18,19 23,33 19,50 -5,20 -1,26 24,35 21,7 33,19 37,37 3,15 21,42 40,61 19,19 35,38 35,42 0,5 7,9 15,9 8,0 15,4 15,9 0,5 16,26 35,45 19,20 35,40 35,45 0,5 20,31 45,59 25,27 45,52 45,56 0,3 18,34 40,68 22,35 40,71 40,80 0,9 4,20 10,23 9,5 21,30 73,145 6,14 17,32 24,41 16,19 7,49 -14,49 -9,0 -13,8 -11,23 2,17 9,22 30,20 21,-1 29,5 38,30 7,18 18,46 25,62 29,66 47,121 48,145 1,14 4,27 7,30 7,7 40,102 40,117 0,7 -7,10 -15,7 -10,-4 -15,0 -15,13 0,25 28,63 47,63 14,0 14,3 -1,25 -9,13 -16,32 -16,41 0,21 39,76 50,69 10,-6 12,0 34,100 8,39 20,93 26,120 6,28 14,61 16,75 3,14 9,34 13,45 21,52 31,94 31,127 0,19 9,61 20,93 11,32 20,68 20,80 0,13 12,43 26,69 14,25 23,46 20,46 -4,0 -2,9 4,20 9,16 26,153 44,345 8,80 16,128 28,158 7,17 7,32 1,40 -13,17 -16,87 -4,101 15,18 26,179 14,201 -7,12 -7,30 -1,51 6,22 5,41 -1,52 -7,14 -6,25 4,39 10,14 14,44 14,87 -1,43 4,72 12,83 14,16 16,26 21,123 2,30 7,61 12,68 4,7 9,62 10,121 2,59 5,112 9,117 3,6 9,73 12,150 5,131 9,188 22,359 10,134 8,173 -12,405 -3,30 -7,121 -10,201 -3,94 -11,162 -20,190 -9,24 -13,49 -11,56 6,16 -13,74 -31,91 -7,7 -14,21 -14,30 -4,46 -7,61 -24,95 -10,21 -15,40 -12,44 3,3 -3,23 -13,44 -11,21 -20,46 -20,56 0,10 -9,32 -20,48 -11,17 -20,44 -20,62 0,19 -10,43 -25,61 -14,17 -25,35 -25,40 0,6 -5,23 -12,39 -6,15 -10,32 -9,37 1,5 -4,16 -12,25 -7,9 -23,48 -36,86 -12,39 -31,89 -42,112 -10,24 -19,50 -19,58 0,8 -18,59 -41,112 -23,54 -44,109 -47,123 -3,13 -11,31 -19,38 -7,7 -14,20 -14,28 -3,32 -26,84 -38,84 -5,0 -15,15 -21,34 -6,19 -17,39 -24,45 -7,6 -21,36 -31,66 -9,30 -21,57 -26,61 -5,3 -9,12 -9,20 0,18 -38,53 -57,54 -7,0 -13,11 -13,24 0,27 -37,96 -51,96 -5,0 -9,7 -9,16 0,20 -57,104 -76,111 -7,2 -16,15 -20,26 -6,22 -24,43 -76,94 -16,14 -28,32 -28,40 0,7 -9,18 -20,25 -11,7 -20,18 -20,25 0,7 -4,13 -8,13 -8,0 -67,57 -145,143 -43,47 -87,77 -111,77 -6,0 -22,14 -36,31 -14,17 -38,37 -54,46 -30,16 -44,26 -77,56 -10,9 -24,17 -29,17 -6,0 -21,6 -33,14 -12,8 -38,17 -57,21 -19,4 -43,16 -53,26 -10,11 -24,19 -32,19 -8,0 -15,3 -15,8 0,14 -80,40 -185,59 -16,3 -35,10 -42,15 -7,5 -17,7 -22,3 -6,-3 -46,-1 -88,6 -190,29 -584,51 -641,37 z M 5082,14268 c -7,-7 -12,-8 -12,-2 0,14 12,26 19,19 2,-3 -1,-11 -7,-17 z m -51,-105 c -12,-20 -14,-14 -5,12 4,9 9,14 11,11 3,-2 0,-13 -6,-23 z m 973,-8470 c 4,-5 26,-13 49,-18 39,-10 43,-15 92,-110 28,-55 61,-118 73,-140 12,-22 22,-43 22,-48 0,-4 9,-27 19,-50 31,-67 52,-194 53,-307 0,-147 -7,-190 -37,-215 -14,-11 -35,-42 -47,-70 l -23,-50 -6,55 c -3,30 -4,75 -2,100 20,214 20,234 1,270 -10,19 -18,40 -18,46 0,6 -9,19 -20,29 -26,24 -181,33 -206,13 -87,-70 -116,-144 -118,-297 -1,-58 -5,-96 -12,-98 -6,-2 -11,2 -12,9 -7,67 -15,116 -22,133 -17,41 -19,55 -9,61 6,3 9,36 8,72 -2,69 7,258 17,347 17,156 87,273 165,274 14,1 29,-2 33,-6 z m 164,-1063 c -27,-47 -34,-49 -42,-14 -8,32 8,54 41,54 h 24 z"
         id="path8004"
         style="fill:#ffffff;fill-opacity:1" />
      <path
         d="m 3015,370 c -3,-5 1,-10 10,-10 9,0 13,5 10,10 -3,6 -8,10 -10,10 -2,0 -7,-4 -10,-10 z"
         id="path8006"
         style="fill:#ffffff;fill-opacity:1" />
    </g>
  </g>
</svg>
