<?xml version="1.0" encoding="UTF-8" standalone="no"?>
<svg
   xmlns:dc="http://purl.org/dc/elements/1.1/"
   xmlns:cc="http://creativecommons.org/ns#"
   xmlns:rdf="http://www.w3.org/1999/02/22-rdf-syntax-ns#"
   xmlns:svg="http://www.w3.org/2000/svg"
   xmlns="http://www.w3.org/2000/svg"
   xmlns:sodipodi="http://sodipodi.sourceforge.net/DTD/sodipodi-0.dtd"
   xmlns:inkscape="http://www.inkscape.org/namespaces/inkscape"
   width="113.71387mm"
   height="67.227364mm"
   viewBox="0 0 113.71387 67.227364"
   version="1.1"
   id="svg1332"
   inkscape:version="1.0.1 (1.0.1+r73)"
   sodipodi:docname="flourish-jade.svg">
  <defs
     id="defs1326">
    <clipPath
       clipPathUnits="userSpaceOnUse"
       id="clipPath7985">
      <rect
         style="fill:#46857d;fill-opacity:0.762856;stroke:#ffffff;stroke-width:38.297;stroke-miterlimit:4;stroke-dasharray:none;stroke-opacity:1"
         id="rect7987"
         width="49020.258"
         height="12255.064"
         x="-15352.099"
         y="-15341.188"
         rx="191.48538"
         ry="191.48538"
         transform="rotate(170.00433)" />
    </clipPath>
  </defs>
  <sodipodi:namedview
     id="base"
     pagecolor="#ffffff"
     bordercolor="#666666"
     borderopacity="1.0"
     inkscape:pageopacity="0.0"
     inkscape:pageshadow="2"
     inkscape:zoom="0.35"
     inkscape:cx="720.60665"
     inkscape:cy="-170.09902"
     inkscape:document-units="mm"
     inkscape:current-layer="layer1"
     inkscape:document-rotation="0"
     showgrid="false"
     fit-margin-top="0"
     fit-margin-left="0"
     fit-margin-right="0"
     fit-margin-bottom="0"
     inkscape:window-width="1439"
     inkscape:window-height="1050"
     inkscape:window-x="4530"
     inkscape:window-y="0"
     inkscape:window-maximized="0" />
  <metadata
     id="metadata1329">
    <rdf:RDF>
      <cc:Work
         rdf:about="">
        <dc:format>image/svg+xml</dc:format>
        <dc:type
           rdf:resource="http://purl.org/dc/dcmitype/StillImage" />
        <dc:title></dc:title>
      </cc:Work>
    </rdf:RDF>
  </metadata>
  <g
     inkscape:label="Layer 1"
     inkscape:groupmode="layer"
     id="layer1"
     transform="translate(84.827177,-193.17203)">
    <g
       transform="matrix(-0.00680384,-0.00119917,0.00119917,-0.00680384,21.235997,281.72052)"
       fill="#000000"
       stroke="none"
       id="g7981"
       style="display:inline;fill:#46857d;fill-opacity:1"
       clip-path="url(#clipPath7985)">
      <path
         d="m 1430,12135 c 0,-8 6,-15 14,-15 8,0 16,7 20,15 4,10 -1,15 -14,15 -11,0 -20,-7 -20,-15 z"
         id="path7975"
         style="fill:#46857d;fill-opacity:1" />
      <path
         d="m 11995,10822 c -16,-1 -46,-7 -65,-13 -19,-5 -93,-18 -165,-29 -71,-11 -179,-32 -240,-49 -60,-16 -148,-39 -195,-51 -113,-29 -171,-55 -255,-111 -131,-87 -264,-235 -315,-348 -6,-14 -25,-54 -41,-90 -36,-77 -40,-96 -46,-214 -6,-112 22,-210 77,-272 20,-22 45,-52 57,-67 19,-25 126,-118 136,-118 3,0 22,-8 43,-17 51,-23 249,-42 389,-37 90,3 126,9 198,34 49,16 103,30 120,30 18,0 57,7 87,15 30,8 58,15 63,15 14,0 7,-21 -10,-27 -22,-7 -103,-43 -198,-88 -38,-18 -86,-38 -105,-45 -19,-6 -46,-18 -60,-25 -14,-7 -50,-20 -80,-30 -30,-10 -96,-35 -147,-56 -51,-22 -97,-39 -104,-39 -6,0 -50,-18 -98,-41 -47,-23 -108,-49 -136,-59 -27,-11 -70,-26 -95,-36 -61,-22 -270,-78 -333,-89 -21,-3 -46,-14 -56,-24 -10,-10 -44,-28 -77,-41 -32,-13 -73,-29 -91,-36 -17,-8 -36,-14 -41,-14 -6,0 -23,-6 -39,-14 -36,-18 -95,-36 -116,-36 -9,0 -17,-6 -17,-14 0,-18 -41,-33 -110,-41 -55,-6 -79,-12 -181,-46 -31,-11 -65,-19 -77,-19 -11,0 -23,-4 -27,-9 -3,-5 -20,-13 -38,-16 -30,-7 -140,-55 -254,-113 -29,-14 -56,-23 -59,-19 -4,4 22,36 58,71 60,58 178,198 178,210 0,3 18,29 39,58 83,109 131,246 151,426 7,73 8,117 2,125 -5,7 -13,39 -17,71 -4,33 -14,75 -23,95 -17,37 -89,121 -105,121 -5,0 -25,14 -44,30 -30,27 -41,30 -99,30 -36,0 -100,-7 -142,-16 -72,-14 -116,-32 -286,-115 -72,-35 -250,-180 -321,-261 -53,-60 -98,-150 -101,-202 -1,-22 -5,-53 -9,-67 -4,-18 1,-39 18,-70 13,-24 22,-49 20,-55 -2,-6 3,-17 12,-24 8,-7 15,-21 15,-31 0,-24 104,-103 183,-139 l 63,-29 118,15 c 65,8 134,21 154,29 19,9 39,12 43,8 4,-5 -22,-42 -58,-83 -36,-41 -73,-86 -82,-100 -16,-24 -140,-150 -148,-150 -5,0 -19,-11 -63,-51 -19,-17 -68,-56 -107,-85 -40,-30 -73,-59 -73,-64 0,-6 -7,-10 -14,-10 -8,0 -55,-27 -103,-59 -48,-33 -131,-87 -183,-120 -52,-33 -99,-64 -105,-69 -8,-7 -346,-202 -483,-280 -24,-13 -45,-22 -47,-20 -6,6 30,73 124,227 28,47 60,116 72,155 11,39 33,107 49,152 17,44 30,88 30,97 0,9 9,40 20,69 11,29 20,63 20,76 0,12 9,51 21,85 23,67 39,141 44,199 2,21 10,61 19,90 47,160 56,201 56,264 0,98 -27,250 -54,309 -13,27 -32,73 -41,102 -9,29 -23,57 -31,64 -8,6 -14,15 -14,20 0,25 -94,139 -169,206 -47,42 -96,87 -109,100 -79,79 -400,252 -572,307 -47,15 -98,34 -115,41 -40,17 -337,83 -497,110 -220,37 -723,50 -968,25 -63,-6 -137,-13 -164,-15 -26,-2 -76,-8 -110,-14 -33,-6 -122,-20 -196,-31 -163,-25 -328,-58 -355,-70 -11,-5 -36,-12 -55,-15 -54,-10 -183,-53 -305,-102 -118,-48 -364,-165 -405,-192 -14,-10 -41,-24 -60,-31 -19,-8 -81,-44 -138,-80 -57,-36 -112,-70 -123,-76 -11,-6 -30,-20 -42,-30 -12,-11 -34,-25 -48,-32 -15,-8 -37,-24 -51,-37 -13,-12 -40,-30 -59,-39 -19,-9 -50,-31 -70,-49 -19,-17 -68,-59 -109,-92 -116,-94 -286,-270 -321,-333 -132,-234 -173,-347 -183,-502 -2,-41 -7,-82 -10,-90 -13,-36 -13,-217 0,-350 22,-214 63,-385 118,-495 26,-49 46,-97 46,-106 0,-9 7,-19 15,-23 8,-3 15,-12 15,-20 0,-8 6,-19 13,-23 7,-4 27,-31 45,-59 17,-27 43,-61 57,-74 14,-13 25,-34 25,-47 0,-16 8,-27 24,-33 13,-5 27,-14 31,-19 9,-15 192,-151 203,-151 5,0 27,-12 48,-28 41,-29 70,-43 119,-60 57,-21 247,-72 278,-77 18,-2 75,-11 127,-20 134,-24 235,-37 305,-39 33,-1 94,-6 135,-10 101,-9 448,-15 456,-7 3,3 27,7 52,8 26,1 85,6 132,12 91,10 163,18 248,26 29,3 64,12 77,21 13,8 59,19 102,23 74,8 91,12 138,31 38,15 160,58 200,71 22,7 44,17 50,21 5,4 17,8 28,8 10,0 43,11 73,25 30,14 60,25 66,25 41,0 298,148 298,172 0,4 5,8 12,8 6,0 19,6 27,13 9,8 36,22 60,31 25,10 80,42 124,72 43,30 83,54 88,54 5,0 9,5 9,10 0,6 6,10 13,10 8,0 24,12 38,26 13,15 37,35 53,45 94,58 267,264 322,385 19,40 38,75 43,79 15,9 40,64 47,104 3,20 12,51 21,69 15,34 31,104 40,180 3,23 9,42 14,42 5,0 9,11 9,24 0,13 7,43 16,67 18,51 28,254 13,281 -5,10 -12,47 -14,83 -3,45 -11,75 -25,95 -11,15 -20,34 -20,42 0,8 -9,24 -20,36 -11,12 -20,24 -20,27 0,4 -33,39 -73,79 -57,56 -93,82 -167,118 -52,25 -111,49 -130,53 -19,3 -55,13 -81,21 -108,34 -508,82 -704,83 -71,0 -346,-25 -425,-40 -30,-6 -95,-16 -145,-24 -49,-8 -120,-19 -157,-24 -37,-6 -82,-17 -100,-25 -18,-8 -67,-25 -108,-37 -118,-35 -192,-59 -222,-75 -15,-8 -36,-14 -47,-14 -18,0 -164,-58 -203,-80 -10,-5 -23,-10 -29,-10 -6,0 -79,-34 -162,-75 -108,-54 -185,-101 -266,-163 -114,-86 -138,-114 -161,-182 -7,-19 -25,-62 -41,-95 -16,-33 -36,-98 -44,-145 -36,-205 -4,-313 127,-440 108,-104 162,-146 243,-184 174,-84 297,-109 525,-109 168,1 383,26 445,52 59,26 195,63 295,81 25,4 92,29 150,55 58,26 112,48 120,50 35,8 75,27 102,50 16,14 36,25 44,25 8,0 14,4 14,9 0,5 14,14 30,20 17,5 30,15 30,20 0,6 26,28 58,50 93,64 201,188 244,281 75,161 53,236 -80,278 -366,115 -396,124 -431,118 -91,-15 -192,-25 -256,-26 -105,-1 -283,-34 -316,-59 -16,-12 -35,-21 -43,-21 -8,0 -16,-3 -18,-7 -1,-5 -30,-21 -63,-37 -101,-49 -152,-93 -185,-162 -33,-67 -40,-152 -17,-197 15,-28 81,-82 142,-115 68,-36 107,-42 192,-27 101,18 140,35 184,82 48,49 56,78 32,105 -18,21 -115,88 -126,88 -13,0 -82,52 -82,62 0,11 82,35 144,42 20,3 56,10 81,16 31,8 81,9 160,4 114,-8 141,-9 253,-12 71,-2 78,-15 46,-79 -24,-45 -161,-193 -179,-193 -12,0 -48,-19 -75,-41 -25,-20 -168,-80 -255,-107 -68,-22 -236,-62 -257,-62 -7,0 -23,-11 -37,-24 -26,-23 -109,-46 -169,-46 -16,0 -44,-8 -61,-19 -43,-26 -153,-36 -172,-16 -9,8 -32,16 -52,16 -35,1 -49,3 -132,13 -60,7 -114,25 -150,49 -19,13 -53,30 -75,38 -22,7 -49,21 -60,30 -19,17 -24,19 -44,19 -17,0 -131,124 -131,142 0,10 -6,21 -14,24 -26,10 -29,61 -7,107 12,24 21,49 21,56 0,17 119,150 150,166 14,8 41,28 60,45 36,32 188,121 275,162 28,13 54,29 58,36 4,6 16,12 26,12 17,0 74,23 176,69 22,10 63,27 90,38 28,11 75,31 105,43 30,12 80,29 110,36 30,7 80,20 110,27 56,15 125,30 215,48 28,5 113,11 190,13 77,2 223,12 325,21 108,10 216,14 260,11 205,-17 309,-31 348,-48 24,-10 57,-18 73,-18 52,0 208,-58 287,-107 43,-26 80,-52 84,-58 13,-17 9,-89 -7,-141 -8,-27 -15,-67 -15,-89 0,-95 -63,-306 -131,-437 -10,-21 -29,-57 -41,-80 -79,-154 -244,-314 -520,-503 -23,-16 -74,-53 -113,-81 -138,-102 -256,-158 -570,-274 -168,-61 -393,-116 -640,-156 -168,-26 -238,-32 -385,-28 -74,2 -198,5 -275,7 -77,1 -148,6 -158,11 -9,4 -34,6 -55,3 -35,-4 -265,18 -280,27 -4,2 -50,11 -102,20 -106,19 -195,48 -225,75 -11,10 -38,27 -60,37 -45,20 -273,246 -312,309 -14,22 -38,54 -53,70 -72,77 -116,198 -126,345 -2,30 -8,98 -15,150 -6,52 -10,115 -10,140 3,98 49,318 83,390 11,25 27,59 35,75 15,33 96,149 134,192 13,15 41,50 61,76 37,48 109,117 138,131 38,18 59,34 89,69 18,20 38,37 44,37 6,0 45,27 87,59 186,144 331,234 520,322 36,17 90,42 120,57 30,15 66,27 80,28 25,1 137,40 155,54 6,4 39,15 75,25 36,9 82,26 102,36 21,11 63,27 95,35 31,8 62,19 67,23 6,5 31,12 56,16 25,4 52,11 61,16 20,10 134,19 370,29 97,4 181,10 186,13 20,12 359,31 529,30 164,-2 440,-20 497,-33 22,-4 45,-6 52,-4 6,3 46,-6 87,-20 41,-13 115,-32 164,-41 174,-32 464,-127 534,-175 14,-10 36,-21 50,-25 22,-7 78,-37 145,-78 96,-59 201,-152 278,-248 29,-37 43,-68 63,-145 34,-132 36,-246 5,-374 -74,-309 -93,-381 -111,-425 -5,-11 -12,-36 -15,-55 -4,-19 -22,-66 -40,-105 -19,-38 -37,-82 -41,-98 -3,-15 -12,-31 -19,-35 -7,-4 -20,-25 -29,-47 -10,-22 -23,-49 -29,-60 -6,-11 -30,-56 -53,-100 -102,-194 -184,-315 -276,-407 -121,-120 -278,-249 -469,-386 -48,-34 -89,-69 -93,-77 -3,-8 -16,-15 -30,-15 -13,0 -37,-10 -53,-23 -31,-26 -174,-116 -213,-134 -141,-67 -432,-168 -690,-238 -224,-61 -725,-184 -879,-215 -58,-12 -107,-23 -111,-25 -3,-2 -73,-17 -155,-34 -83,-16 -188,-40 -235,-52 -47,-11 -118,-27 -158,-35 -40,-7 -77,-16 -81,-18 -21,-14 -381,-58 -541,-67 -102,-5 -248,-14 -325,-18 -84,-5 -142,-4 -146,1 -4,6 -60,6 -140,1 -74,-4 -143,-7 -154,-5 -15,1 -16,0 -7,-7 10,-6 6,-10 -15,-15 -65,-16 -625,-29 -653,-16 -29,14 -70,20 -70,11 0,-5 8,-12 18,-14 13,-4 11,-5 -5,-6 -14,-1 -23,5 -23,14 0,20 -44,20 -64,0 -10,-10 -33,-15 -68,-14 -138,3 -148,4 -143,17 2,7 -4,12 -14,12 -11,0 -21,-4 -23,-9 -2,-5 -63,-5 -148,1 -80,6 -183,12 -230,14 -47,2 -137,7 -200,11 -63,5 -144,5 -180,2 -105,-12 -444,0 -635,22 -210,24 -263,29 -322,29 H 0 v -135 c 0,-121 2,-135 19,-144 10,-6 88,-13 172,-16 85,-4 174,-8 199,-11 25,-2 119,-6 210,-8 91,-3 300,-10 465,-17 165,-6 341,-13 390,-15 50,-2 144,-8 210,-14 66,-6 185,-12 265,-15 80,-3 152,-6 160,-7 27,-5 856,20 935,28 159,15 294,22 635,32 195,6 241,10 269,25 19,9 37,13 40,8 12,-18 49,-21 84,-6 20,8 64,15 97,15 34,0 82,6 108,14 49,14 137,35 362,85 74,16 177,39 228,51 51,11 120,22 153,24 32,2 66,9 74,16 8,6 18,9 23,6 4,-2 35,-1 68,4 205,31 357,39 659,35 372,-5 511,-11 533,-21 10,-4 58,-11 107,-15 146,-12 198,-20 235,-37 35,-16 81,-27 155,-39 22,-3 42,-9 45,-12 7,-8 161,-46 288,-71 57,-11 111,-24 120,-28 9,-5 60,-24 112,-42 149,-51 240,-96 305,-152 11,-9 52,-33 90,-53 94,-48 107,-57 123,-77 7,-10 20,-18 29,-18 8,0 64,-51 124,-112 59,-62 124,-129 144,-149 19,-20 35,-40 35,-44 0,-4 13,-26 28,-49 44,-66 79,-187 117,-411 10,-55 23,-125 31,-155 7,-30 16,-86 20,-125 3,-38 8,-79 10,-90 15,-75 15,-211 -1,-315 -62,-424 -138,-675 -298,-980 -126,-243 -220,-377 -451,-650 -23,-27 -149,-144 -211,-195 -52,-43 -146,-112 -229,-165 -12,-8 -42,-28 -67,-44 -54,-36 -242,-137 -329,-177 -36,-16 -82,-39 -103,-49 -22,-11 -46,-20 -56,-20 -9,0 -25,-6 -36,-14 -11,-7 -38,-16 -60,-21 -22,-4 -73,-18 -114,-31 -40,-13 -103,-29 -140,-35 -36,-6 -75,-15 -86,-19 -28,-11 -64,-20 -105,-26 -19,-3 -44,-9 -55,-13 -33,-14 -155,-40 -233,-51 -40,-6 -112,-17 -159,-25 -47,-8 -111,-15 -142,-15 -31,0 -72,-4 -91,-9 -19,-5 -93,-12 -165,-15 -71,-4 -146,-9 -165,-12 -44,-6 -610,-6 -670,0 -25,3 -84,8 -132,11 -119,8 -137,11 -145,18 -3,4 -25,7 -48,7 -23,0 -66,4 -96,9 -30,6 -94,15 -144,21 -49,7 -111,18 -138,25 -26,8 -49,14 -52,14 -18,2 -113,25 -165,41 -14,4 -52,16 -85,25 -33,10 -64,21 -70,24 -5,4 -35,15 -65,26 -73,25 -173,86 -246,150 -7,6 -33,26 -59,45 -96,71 -218,204 -248,271 -38,84 -66,177 -77,259 -14,97 -11,248 6,281 7,15 10,29 7,33 -4,3 3,16 15,29 14,15 19,30 16,44 -4,15 0,25 16,33 23,12 44,55 41,81 -1,9 14,37 34,63 19,25 35,49 35,52 0,3 8,18 19,32 10,15 38,63 61,107 24,44 47,82 50,85 4,3 29,37 55,75 126,181 328,397 425,453 58,34 80,53 80,69 0,14 51,43 76,43 9,0 31,16 50,37 31,34 38,37 109,42 65,6 79,10 101,34 13,15 35,27 48,27 12,0 49,13 82,29 32,16 70,32 84,35 14,4 57,16 96,26 40,10 94,33 121,49 28,17 59,31 70,31 10,0 23,4 29,9 5,5 36,16 69,24 70,17 119,34 158,53 16,8 43,14 60,14 18,0 57,7 87,16 30,8 123,29 205,45 83,16 179,37 215,45 36,9 83,17 105,20 22,2 60,8 85,13 25,6 85,13 133,16 49,4 100,8 115,10 65,8 533,-15 612,-30 90,-17 226,-57 273,-81 16,-8 35,-14 42,-14 39,0 183,-84 264,-153 8,-6 29,-19 47,-27 37,-18 102,-75 132,-117 26,-36 62,-163 62,-218 0,-49 -42,-255 -71,-349 -12,-38 -35,-95 -50,-127 -16,-32 -29,-63 -29,-69 0,-7 -8,-24 -19,-38 -10,-15 -22,-38 -26,-52 -4,-14 -11,-30 -16,-36 -5,-6 -21,-33 -35,-59 -14,-27 -35,-62 -47,-79 -31,-42 -251,-259 -301,-296 -76,-56 -171,-115 -206,-128 -149,-58 -215,-76 -320,-88 -25,-3 -52,-7 -60,-9 -8,-3 -37,-7 -65,-10 -27,-4 -57,-12 -65,-20 -10,-8 -43,-13 -95,-14 -67,0 -182,-10 -305,-27 -172,-22 -423,-4 -572,42 -45,15 -95,29 -111,31 -15,3 -30,9 -33,14 -3,5 -13,9 -23,9 -10,0 -30,9 -44,20 -14,11 -31,20 -38,20 -6,0 -41,13 -75,30 -58,27 -111,68 -216,167 -46,44 -74,116 -86,222 -7,74 -6,88 18,159 30,87 52,133 86,179 13,17 24,36 24,41 0,16 167,163 214,188 11,6 46,26 76,44 91,54 199,111 228,120 15,5 72,25 127,45 55,20 132,43 170,51 39,8 93,21 120,29 68,20 306,36 347,24 18,-5 46,-9 63,-9 38,0 110,-24 202,-68 56,-27 86,-50 135,-105 95,-105 92,-98 85,-189 -7,-83 -14,-101 -95,-216 -18,-26 -41,-60 -51,-75 -41,-62 -177,-142 -311,-182 -25,-7 -76,-25 -115,-38 -38,-14 -89,-28 -111,-32 l -42,-6 -5,38 c -11,72 -19,103 -28,103 -5,0 -14,12 -20,26 -5,15 -12,24 -16,21 -9,-9 -43,12 -43,27 0,14 -86,96 -101,96 -5,0 -15,11 -21,25 -9,20 -14,22 -25,13 -10,-8 -20,-8 -38,0 -14,6 -60,14 -102,18 -76,6 -80,5 -148,-30 -90,-48 -120,-77 -158,-156 -28,-57 -32,-74 -31,-143 2,-76 25,-157 46,-157 4,0 17,-11 29,-24 11,-13 51,-36 87,-52 37,-15 83,-38 102,-51 19,-13 50,-33 68,-44 17,-12 32,-25 32,-29 0,-8 0,-8 108,-39 51,-15 78,-18 91,-12 12,7 31,7 52,1 19,-5 64,-11 99,-14 36,-2 72,-6 81,-10 8,-4 42,0 74,9 33,8 78,15 101,15 24,0 55,5 71,11 15,7 48,15 73,19 59,10 273,93 307,120 14,11 31,20 38,20 27,0 179,147 191,184 4,11 20,41 35,67 16,25 29,57 29,70 0,13 11,45 24,70 32,60 47,141 34,187 -6,20 -8,55 -4,78 3,28 1,47 -9,60 -8,10 -15,36 -15,56 0,20 -5,50 -11,65 -33,79 -51,114 -93,176 -25,38 -46,72 -46,77 0,5 -44,53 -98,107 -135,135 -195,166 -432,219 -88,20 -351,21 -440,2 -30,-6 -62,-12 -70,-13 -61,-8 -204,-43 -295,-73 -67,-22 -204,-88 -310,-148 -38,-22 -81,-47 -95,-55 -14,-8 -43,-28 -65,-44 -22,-17 -69,-50 -105,-75 -87,-59 -195,-148 -251,-207 -59,-61 -140,-187 -150,-233 -4,-19 -13,-55 -20,-80 -17,-62 -19,-374 -1,-391 6,-7 12,-26 12,-41 0,-16 10,-45 23,-66 13,-20 29,-56 36,-79 8,-23 24,-59 37,-80 13,-21 33,-57 44,-80 20,-39 181,-202 247,-250 69,-50 346,-163 399,-163 12,0 59,-19 104,-41 76,-38 91,-42 204,-51 112,-9 291,-7 541,6 55,3 150,6 211,5 61,0 131,5 154,11 25,7 45,8 49,2 7,-11 239,11 296,28 44,13 164,72 207,102 14,10 34,18 45,19 10,0 37,15 60,32 115,88 221,178 267,227 28,30 69,73 91,95 47,47 115,130 115,140 0,4 14,27 30,51 17,24 43,63 59,87 43,62 119,238 146,336 13,47 32,113 43,146 42,131 52,175 66,310 16,155 9,229 -33,335 -11,30 -21,61 -21,68 0,16 -138,229 -205,317 -26,33 -62,71 -81,85 -19,14 -51,37 -70,52 -20,15 -49,33 -65,40 -16,7 -29,16 -29,20 0,5 -8,8 -18,8 -10,0 -29,11 -41,24 -28,30 -197,126 -271,154 -51,19 -103,35 -220,67 -176,49 -518,73 -805,57 -267,-15 -538,-61 -815,-137 -52,-14 -133,-34 -180,-45 -199,-44 -453,-132 -665,-230 -33,-15 -95,-42 -138,-60 -43,-18 -134,-66 -203,-107 -90,-52 -135,-73 -160,-73 -24,0 -34,-4 -34,-16 0,-9 -67,-84 -149,-167 -184,-188 -318,-351 -425,-520 -21,-32 -65,-93 -99,-135 -70,-86 -163,-268 -188,-365 -67,-262 -98,-541 -72,-650 7,-29 12,-64 13,-78 0,-36 94,-203 139,-248 20,-20 62,-58 94,-86 31,-27 57,-55 57,-61 0,-6 8,-18 18,-27 10,-9 28,-37 41,-61 12,-25 45,-64 74,-87 29,-24 73,-61 98,-84 185,-163 291,-224 438,-256 25,-5 52,-16 61,-24 9,-8 22,-15 29,-15 23,0 176,-54 201,-70 14,-10 41,-20 60,-24 78,-15 147,-27 180,-31 19,-2 74,-11 122,-20 47,-8 100,-12 116,-9 16,3 50,-1 77,-11 27,-9 55,-13 63,-10 7,3 44,0 80,-6 91,-15 667,-20 932,-8 118,5 253,17 299,25 52,9 104,13 133,9 30,-4 83,-1 136,9 84,15 188,31 262,41 19,3 58,12 85,20 28,7 79,19 115,25 118,20 278,58 400,95 25,7 62,17 83,20 20,4 40,11 43,16 3,5 20,9 38,9 30,0 249,104 316,150 14,10 59,35 100,56 41,21 77,41 80,44 3,3 21,14 40,24 19,11 58,38 85,61 28,24 64,50 82,59 47,24 296,274 378,379 78,100 98,128 151,207 31,47 65,97 75,112 11,15 19,31 19,35 0,4 16,35 37,68 123,202 240,480 276,655 8,41 27,118 41,170 14,52 35,148 46,215 11,66 28,163 37,215 29,152 21,693 -12,910 -8,51 -96,396 -105,412 -6,10 -10,25 -10,34 0,9 -9,28 -19,43 -11,15 -26,46 -34,69 -16,45 -35,73 -167,240 -122,155 -260,294 -350,351 -42,27 -82,56 -89,65 -8,9 -18,16 -23,16 -5,0 -28,13 -51,28 -23,15 -69,38 -102,51 -33,12 -73,30 -89,38 -17,9 -41,18 -55,19 -39,4 -145,32 -226,59 -41,14 -85,25 -99,25 -14,0 -28,5 -31,10 -3,6 -19,10 -35,10 -39,0 -80,17 -110,45 -25,24 -67,44 -105,50 -11,2 -67,10 -125,19 -109,16 -327,54 -345,60 -5,2 1,9 15,15 14,6 32,15 40,20 49,31 147,84 161,86 26,5 81,35 114,63 16,14 48,33 70,43 22,11 54,28 70,39 17,11 37,23 45,27 8,3 31,19 51,35 20,15 41,28 47,28 5,0 16,7 23,16 8,9 31,28 53,42 22,13 44,28 50,33 119,98 263,193 344,225 51,21 92,41 127,64 49,33 207,110 224,110 8,0 25,10 38,22 13,12 40,28 61,35 20,8 57,21 82,30 25,8 54,22 65,29 11,8 40,14 65,14 26,0 55,7 66,15 10,8 28,15 40,15 11,0 24,3 28,7 4,4 22,9 39,10 106,7 226,31 247,49 8,7 48,15 88,19 40,3 85,11 100,17 32,13 44,14 222,23 118,6 145,4 214,-14 90,-24 102,-31 121,-77 13,-33 8,-71 -16,-114 -5,-8 -16,-30 -25,-47 -9,-18 -20,-33 -24,-33 -4,0 -20,-19 -36,-42 -42,-64 -190,-201 -263,-245 -20,-11 -74,-41 -121,-64 -47,-24 -87,-46 -90,-49 -10,-11 -91,-50 -104,-50 -7,0 -45,-16 -85,-35 -39,-19 -78,-35 -85,-35 -7,0 -33,-7 -57,-16 -24,-9 -60,-20 -79,-24 -19,-5 -60,-16 -90,-25 -30,-9 -82,-22 -115,-30 -33,-7 -85,-24 -115,-38 -30,-14 -80,-30 -110,-36 -30,-6 -122,-25 -205,-42 -163,-33 -305,-40 -350,-17 l -24,13 52,55 c 29,30 84,81 122,112 98,81 298,228 303,223 5,-5 -38,-126 -50,-142 -7,-9 -3,-15 16,-23 15,-5 30,-20 35,-33 15,-38 93,-51 110,-19 6,12 23,18 51,19 23,1 47,6 53,11 7,5 26,13 44,16 17,4 37,14 44,22 6,8 22,14 35,14 32,0 70,17 238,104 38,20 75,36 83,36 9,0 32,13 52,28 20,15 48,33 63,39 34,15 54,32 139,118 87,87 99,105 101,154 1,31 -6,47 -37,85 l -37,46 h -72 c -140,0 -308,-42 -527,-131 -241,-97 -548,-278 -654,-385 -42,-43 -245,-208 -274,-224 -22,-11 -23,-16 -18,-68 3,-31 14,-67 25,-82 11,-14 29,-44 40,-66 22,-43 36,-51 134,-78 96,-27 274,-19 427,19 117,29 177,47 208,61 17,7 38,14 45,14 8,0 57,15 109,34 52,19 119,41 149,50 30,9 71,23 90,30 19,7 69,24 110,36 41,13 80,27 86,32 6,4 51,24 100,44 49,19 93,40 98,45 6,5 18,9 28,9 17,0 65,25 78,40 3,4 25,14 49,24 24,9 72,37 106,61 34,25 68,45 74,45 6,0 11,4 11,9 0,5 8,12 18,15 10,4 68,55 129,114 131,128 187,214 196,304 5,56 -15,138 -34,138 -4,0 -19,20 -33,45 -37,62 -114,125 -183,149 -51,17 -84,20 -278,20 -157,-1 -246,-5 -310,-17 -49,-9 -117,-19 -150,-23 -54,-6 -59,-5 -47,9 8,9 24,19 35,23 12,3 29,13 38,20 37,33 176,91 216,91 26,0 52,8 71,22 17,11 35,21 40,21 5,0 12,7 15,14 3,8 22,18 42,22 19,3 37,10 40,14 7,11 131,70 148,70 8,0 20,7 27,15 7,8 20,15 29,15 10,0 38,14 64,30 26,17 51,30 54,30 4,0 14,6 22,14 9,7 43,23 76,36 33,12 83,33 110,46 28,13 80,33 117,44 37,11 70,25 73,29 3,5 24,12 48,16 23,4 65,16 92,26 28,11 63,19 78,19 15,0 44,7 65,16 20,9 62,20 92,24 30,5 87,17 125,26 39,9 99,18 135,20 36,3 76,9 90,14 14,5 34,10 45,10 11,-1 47,4 80,10 81,13 330,5 386,-13 24,-8 65,-17 92,-21 26,-3 61,-12 77,-21 16,-8 37,-15 47,-15 10,0 29,-9 43,-20 14,-11 32,-20 41,-20 32,0 51,-36 46,-87 -12,-136 -90,-228 -262,-312 -152,-73 -168,-79 -282,-106 -147,-35 -242,-46 -438,-52 l -170,-5 -43,28 c -23,15 -42,32 -42,38 1,6 9,29 20,51 11,22 19,45 20,50 0,23 140,145 165,145 11,0 25,4 31,8 17,14 84,33 94,27 6,-3 9,-26 8,-50 -1,-37 5,-52 40,-99 41,-53 42,-54 99,-58 67,-4 192,29 258,67 103,61 159,147 159,247 1,32 -2,58 -5,58 -3,0 -17,10 -31,23 -57,53 -82,58 -270,52 -95,-3 -202,-12 -238,-19 -122,-27 -165,-38 -175,-46 -5,-4 -26,-11 -45,-15 -43,-9 -110,-56 -163,-113 -22,-23 -50,-45 -63,-48 -13,-4 -24,-9 -24,-13 0,-4 -16,-34 -36,-66 -77,-129 -84,-298 -13,-320 12,-4 38,-23 59,-44 21,-20 51,-43 66,-51 16,-8 36,-22 44,-32 28,-31 452,-60 550,-37 19,5 64,11 100,14 93,8 107,11 190,35 41,12 95,26 120,30 47,7 135,49 168,80 10,10 33,25 51,34 38,20 171,148 171,165 0,7 13,31 28,54 16,23 35,60 44,82 18,48 24,180 9,190 -6,3 -11,13 -11,21 0,30 -81,137 -152,203 -68,61 -83,70 -164,94 -49,15 -110,34 -135,42 -26,8 -57,15 -70,15 -21,0 -62,18 -49,21 3,1 37,7 75,14 39,8 95,19 125,26 38,9 150,12 360,11 288,-1 412,-8 540,-32 30,-6 69,-12 85,-14 48,-6 176,-26 204,-32 69,-16 220,-66 237,-79 17,-13 15,-14 -31,-15 -97,0 -319,-57 -360,-92 -5,-4 -15,-8 -22,-8 -18,0 -128,-81 -144,-107 -8,-12 -39,-55 -70,-95 -53,-69 -56,-77 -67,-158 -13,-95 -4,-154 28,-201 11,-15 20,-30 20,-34 0,-21 136,-197 228,-294 29,-31 61,-67 70,-81 14,-22 172,-175 243,-236 144,-123 393,-284 439,-284 9,0 39,-11 66,-25 27,-14 61,-25 75,-25 14,0 55,-10 90,-21 61,-21 86,-25 189,-33 25,-2 52,-6 60,-9 65,-23 183,-23 244,-1 22,8 77,26 121,40 44,13 85,30 90,38 6,8 17,24 25,36 8,13 29,39 45,59 17,21 39,57 49,82 10,24 24,56 32,70 7,15 16,51 18,80 3,30 9,72 15,94 5,22 9,71 7,110 -1,39 0,79 4,90 6,16 10,15 37,-16 37,-40 202,-256 253,-330 19,-28 51,-70 70,-94 53,-64 61,-75 115,-145 27,-36 54,-70 60,-77 42,-50 105,-140 105,-150 0,-6 9,-22 21,-37 11,-15 18,-34 15,-42 -3,-8 8,-44 24,-78 17,-35 32,-77 33,-94 1,-20 8,-33 20,-36 12,-3 18,-13 17,-28 -1,-13 -1,-25 0,-28 1,-3 2,-41 2,-85 0,-44 6,-89 12,-100 46,-76 68,-217 65,-409 -2,-125 9,-202 34,-251 23,-45 48,-385 31,-424 -4,-9 -6,-21 -5,-27 2,-15 -22,-106 -44,-164 -24,-65 -38,-122 -36,-148 0,-12 -6,-25 -14,-28 -8,-4 -15,-17 -15,-29 0,-13 -4,-27 -10,-30 -5,-3 -10,-15 -10,-26 0,-10 -4,-27 -9,-37 -5,-9 -24,-48 -41,-86 -43,-94 -161,-271 -259,-391 -45,-55 -94,-115 -109,-134 -15,-19 -34,-41 -42,-50 -9,-9 -42,-48 -73,-88 -44,-54 -271,-281 -421,-418 -24,-23 -176,-134 -198,-146 -13,-7 -25,-15 -28,-19 -3,-4 -18,-14 -35,-23 -16,-8 -43,-27 -60,-42 -16,-14 -91,-57 -165,-94 -74,-38 -157,-81 -185,-98 -141,-83 -291,-141 -525,-203 -47,-12 -105,-29 -130,-36 -68,-20 -217,-53 -290,-64 -146,-23 -229,-28 -530,-35 -270,-6 -329,-5 -415,9 -142,24 -254,45 -295,56 -161,42 -205,52 -310,70 -30,5 -86,19 -125,30 -38,12 -88,26 -110,31 -22,6 -49,16 -60,23 -11,7 -36,17 -55,21 -19,4 -90,34 -158,66 -68,33 -127,59 -130,59 -4,0 -30,15 -58,33 -101,63 -278,247 -310,322 -7,17 -24,41 -37,55 -28,30 -141,223 -152,260 -4,14 -22,54 -40,90 -103,200 -119,247 -132,375 -10,92 -1,270 23,460 21,172 20,162 38,225 8,30 23,89 31,130 9,41 22,87 30,104 8,16 15,35 15,41 0,7 21,50 47,96 25,46 53,98 61,114 8,17 25,44 37,60 12,17 48,77 80,135 58,107 152,253 209,325 17,22 48,65 68,95 45,66 81,105 145,156 26,22 69,59 95,83 27,24 57,51 69,60 11,9 33,26 49,39 15,12 32,22 37,22 5,0 18,8 29,18 10,10 42,31 69,47 28,16 64,38 80,47 35,21 94,50 150,73 39,17 95,44 165,81 19,10 85,36 145,57 61,21 146,52 190,67 44,16 109,34 145,40 36,6 92,18 125,25 71,16 248,27 430,26 150,-1 438,-25 478,-40 14,-6 56,-10 91,-10 58,1 76,-5 160,-45 52,-25 105,-46 118,-46 12,0 34,-9 48,-20 14,-11 29,-20 33,-20 5,0 23,-11 40,-24 18,-13 55,-36 82,-50 64,-34 83,-46 122,-73 17,-13 36,-23 41,-23 5,0 15,-6 21,-14 6,-7 71,-53 144,-102 176,-118 275,-216 324,-320 20,-44 50,-93 67,-110 40,-40 56,-61 56,-72 0,-16 48,-108 64,-121 9,-7 16,-28 16,-45 0,-17 5,-47 10,-66 24,-79 41,-195 42,-287 2,-106 -20,-207 -68,-311 -13,-29 -24,-59 -24,-67 0,-8 -4,-15 -10,-15 -5,0 -10,-7 -10,-15 0,-43 -190,-395 -240,-445 -3,-3 -11,-17 -19,-32 -8,-16 -18,-28 -23,-28 -4,0 -8,-4 -8,-9 0,-16 -113,-132 -200,-205 -84,-71 -213,-166 -227,-166 -3,0 -14,-6 -22,-14 -25,-21 -299,-156 -318,-156 -4,0 -52,-17 -107,-39 -130,-50 -185,-69 -271,-93 -38,-10 -83,-23 -100,-28 -193,-59 -372,-90 -522,-91 -98,-1 -157,7 -273,37 -30,8 -70,14 -88,14 -59,0 -145,55 -238,154 -48,50 -98,109 -112,131 -41,64 -122,226 -122,244 0,9 -4,21 -9,26 -14,15 -51,191 -51,242 0,68 19,123 60,173 20,25 51,70 68,101 18,30 57,80 87,110 30,30 55,59 55,65 0,13 29,44 61,64 20,13 41,31 122,106 19,16 127,84 187,117 30,16 62,36 71,43 8,8 20,14 25,15 5,0 36,20 69,45 33,24 80,53 105,65 61,29 245,89 272,89 12,0 29,6 37,13 45,38 105,48 267,44 138,-3 168,-6 228,-28 42,-14 83,-37 102,-56 19,-18 38,-33 43,-33 24,0 40,-43 35,-94 -16,-154 -73,-308 -166,-446 l -73,-110 -35,7 c -19,3 -46,13 -59,21 -41,27 -174,28 -261,2 -79,-23 -185,-75 -233,-113 -16,-12 -42,-33 -58,-46 -38,-30 -78,-107 -86,-166 -7,-56 26,-154 68,-198 16,-16 29,-34 29,-38 0,-5 14,-16 32,-25 26,-14 48,-15 122,-10 50,4 154,11 231,16 77,4 151,11 165,15 40,11 92,36 111,54 10,9 62,39 115,66 88,45 103,58 162,130 35,44 67,87 70,95 3,8 11,22 18,31 20,23 64,112 64,128 0,8 6,22 14,30 13,16 19,36 56,176 10,39 23,84 30,100 19,49 30,114 36,215 7,111 -19,241 -65,325 -43,80 -142,195 -167,195 -14,0 -37,18 -65,51 -50,60 -72,71 -194,94 -49,9 -100,21 -112,27 -37,18 -316,15 -423,-5 -106,-19 -166,-34 -192,-48 -10,-5 -25,-9 -34,-9 -60,0 -463,-180 -539,-240 -5,-4 -32,-20 -58,-35 -56,-31 -193,-132 -257,-190 -136,-122 -385,-392 -386,-418 0,-12 -6,-35 -13,-52 -58,-139 -72,-325 -39,-530 6,-38 12,-83 13,-100 5,-90 97,-310 176,-416 22,-29 59,-81 82,-113 67,-96 253,-273 322,-308 22,-12 53,-32 69,-45 17,-14 39,-29 50,-34 12,-5 28,-13 36,-18 94,-54 146,-66 365,-76 210,-11 357,-8 417,8 29,8 80,20 113,27 79,15 167,38 235,60 30,9 90,25 133,35 42,9 80,21 83,26 3,5 13,9 23,9 20,0 208,66 231,81 8,5 31,16 50,25 19,9 53,24 76,35 22,10 45,19 50,19 29,0 273,141 324,187 14,13 29,23 33,23 13,0 76,49 135,105 29,27 58,52 63,53 5,2 9,12 9,21 0,10 9,26 20,36 11,10 20,23 20,29 0,6 29,56 65,110 36,55 68,109 71,120 4,12 9,23 13,26 16,13 70,111 76,139 3,16 14,40 24,53 10,13 22,34 26,48 4,14 13,32 20,40 7,8 15,28 19,43 4,15 20,56 37,90 39,82 108,294 124,386 13,70 12,76 -6,99 -17,22 -19,41 -18,161 0,100 4,142 15,158 9,14 12,35 9,55 -3,18 -8,49 -11,68 -20,119 -82,307 -131,397 -20,37 -55,104 -76,148 -22,44 -49,90 -61,102 -11,12 -41,42 -66,67 -25,26 -63,58 -85,73 -22,15 -61,44 -86,65 -26,21 -50,38 -54,38 -5,0 -26,15 -49,33 -23,19 -75,53 -116,77 -41,23 -83,49 -92,57 -9,8 -30,22 -47,31 -17,10 -64,38 -106,64 -42,26 -86,50 -98,53 -12,4 -43,20 -68,36 -25,16 -52,29 -59,29 -7,0 -38,11 -69,24 -58,25 -139,48 -226,65 -218,43 -287,54 -445,69 -41,4 -187,7 -325,7 -269,0 -278,-2 -520,-67 -168,-46 -350,-105 -440,-143 -16,-7 -59,-24 -95,-38 -36,-14 -84,-35 -107,-47 -23,-11 -47,-20 -53,-20 -7,0 -24,-9 -38,-19 -15,-10 -54,-33 -87,-50 -33,-18 -76,-42 -95,-54 -19,-12 -50,-31 -69,-42 -19,-11 -66,-47 -105,-80 -40,-33 -80,-67 -90,-75 -10,-8 -34,-29 -53,-47 -19,-18 -43,-35 -53,-38 -11,-4 -20,-12 -20,-20 0,-7 -11,-20 -25,-29 -38,-25 -163,-153 -191,-196 -14,-21 -31,-41 -39,-43 -13,-5 -135,-151 -135,-161 0,-3 -8,-15 -17,-25 -10,-11 -23,-26 -28,-33 -6,-7 -25,-32 -43,-54 -17,-23 -32,-45 -32,-49 0,-6 -19,-36 -102,-157 -10,-15 -18,-29 -18,-32 0,-2 -18,-32 -41,-66 -52,-78 -116,-204 -153,-300 -16,-41 -36,-95 -46,-120 -23,-59 -68,-250 -84,-358 -18,-120 -13,-554 9,-684 8,-53 21,-114 29,-135 7,-21 17,-63 20,-93 8,-58 17,-89 47,-158 11,-23 24,-65 30,-92 6,-27 22,-66 36,-87 14,-21 39,-65 56,-98 17,-33 42,-76 56,-95 14,-19 34,-50 45,-69 34,-61 175,-203 226,-228 28,-13 182,-146 262,-226 10,-9 25,-17 32,-17 8,0 35,-11 59,-23 24,-13 53,-27 63,-30 11,-4 26,-11 34,-16 8,-5 42,-16 75,-26 33,-9 111,-41 174,-71 63,-30 142,-62 175,-70 34,-9 77,-19 96,-24 19,-5 73,-20 120,-34 47,-14 117,-30 155,-36 39,-6 84,-16 100,-21 44,-13 232,-42 290,-44 28,-1 61,-7 73,-14 13,-7 49,-17 80,-22 78,-13 362,-13 376,1 11,11 76,14 76,4 0,-4 -15,-23 -32,-44 -125,-142 -190,-293 -206,-475 -5,-54 -3,-94 5,-120 6,-22 12,-62 12,-90 1,-28 12,-76 26,-110 14,-33 25,-65 25,-70 0,-6 13,-26 28,-45 16,-19 32,-48 36,-65 4,-16 31,-53 59,-81 29,-29 61,-67 72,-85 12,-21 57,-58 115,-96 52,-34 114,-75 138,-92 23,-17 51,-31 61,-31 10,0 24,-7 31,-15 7,-8 21,-15 31,-15 10,0 22,-6 26,-13 9,-15 68,-34 148,-47 28,-5 79,-14 115,-20 74,-13 188,-6 275,17 60,15 162,60 171,75 3,4 12,8 21,8 37,0 249,196 279,258 9,19 31,43 49,53 38,23 98,107 114,159 11,38 40,198 48,267 9,75 -43,182 -145,300 -80,94 -269,213 -347,218 -16,2 -48,6 -69,10 -107,21 -399,-40 -506,-106 -26,-16 -55,-29 -64,-29 -15,0 -16,-7 -11,-44 5,-28 3,-46 -4,-51 -6,-3 -18,-21 -26,-38 -8,-18 -24,-46 -35,-64 -12,-17 -23,-53 -26,-80 -5,-39 -2,-57 20,-97 14,-27 26,-61 26,-76 0,-30 38,-87 96,-142 35,-33 46,-37 119,-46 128,-14 156,-8 208,47 42,44 45,51 52,120 11,108 -22,200 -94,265 -11,11 -21,23 -21,28 0,18 77,41 155,46 94,6 94,6 165,-7 120,-20 148,-31 153,-59 10,-56 -2,-171 -25,-224 -38,-92 -130,-200 -218,-258 -19,-13 -48,-35 -65,-50 -52,-47 -122,-78 -198,-89 -95,-14 -231,-4 -333,25 -28,8 -60,16 -70,18 -76,16 -206,105 -261,179 -79,109 -86,129 -80,230 4,54 11,96 20,106 7,9 21,37 31,63 10,28 30,57 52,73 18,14 34,34 34,44 0,11 11,29 25,42 13,13 25,30 25,37 0,14 60,71 76,72 6,0 19,9 29,19 20,23 131,91 148,91 7,0 21,7 31,15 11,8 26,15 34,15 8,0 35,11 61,24 26,12 65,29 86,36 81,26 136,61 167,105 23,33 41,46 65,51 18,3 36,10 39,15 3,5 16,9 29,9 13,0 26,4 30,9 3,5 20,13 38,17 30,6 80,25 119,45 10,5 25,9 33,9 15,0 24,3 82,34 17,9 36,16 43,16 6,0 55,25 108,56 53,31 122,70 152,87 30,16 61,35 69,41 7,5 21,15 32,21 56,31 252,170 299,212 52,45 114,105 380,365 58,57 125,127 150,157 25,30 54,64 65,76 19,20 92,104 146,169 13,16 43,52 66,80 24,28 49,58 56,67 7,8 39,55 71,103 32,48 61,85 63,82 5,-5 -37,-115 -92,-241 -18,-38 -42,-116 -52,-165 -3,-14 -18,-59 -33,-100 -108,-287 -115,-308 -164,-490 -47,-180 -58,-248 -97,-633 -10,-104 -8,-229 5,-292 2,-11 12,-55 20,-97 20,-92 65,-205 110,-273 18,-27 44,-68 58,-90 52,-80 111,-145 131,-145 8,0 20,-7 27,-15 7,-8 21,-15 32,-15 10,0 29,-11 42,-25 13,-14 33,-25 44,-25 11,0 33,-6 49,-14 113,-57 309,-36 478,51 108,55 216,121 249,150 79,72 231,268 265,342 9,20 37,67 64,103 26,37 47,70 47,74 0,4 18,31 40,60 22,29 40,58 40,64 0,5 4,10 9,10 5,0 11,15 14,33 3,17 12,57 20,87 18,65 26,107 33,175 2,27 14,76 26,110 29,81 32,257 5,329 -10,27 -16,54 -14,60 12,32 -36,191 -82,276 -17,30 -33,62 -37,70 -22,56 -94,150 -116,150 -4,0 -32,16 -62,35 -59,37 -109,45 -163,24 -15,-6 -62,-12 -103,-13 -112,-4 -194,-55 -346,-216 -201,-213 -284,-351 -332,-550 -31,-133 -34,-185 -13,-270 26,-105 100,-230 137,-230 7,0 17,-6 21,-13 14,-21 82,-47 124,-47 47,0 114,36 144,77 11,15 41,56 68,91 26,35 47,73 47,86 0,12 4,26 8,32 5,5 14,51 21,102 12,85 11,95 -5,113 -9,10 -29,19 -44,19 -16,0 -36,11 -51,26 -21,23 -28,25 -74,18 -27,-3 -60,-14 -74,-22 l -24,-16 6,47 c 4,25 11,55 16,64 20,38 61,130 61,137 0,5 9,21 21,37 11,16 22,38 24,49 2,12 16,35 30,51 14,17 25,36 25,43 0,7 8,21 18,32 9,10 40,46 67,79 86,102 89,105 150,121 l 58,15 36,-29 c 50,-40 84,-108 139,-282 6,-19 16,-82 22,-140 6,-58 12,-123 15,-145 13,-106 -66,-420 -144,-575 -21,-42 -64,-111 -96,-155 -255,-348 -316,-413 -447,-475 -189,-90 -341,-94 -412,-9 -10,12 -35,59 -56,105 -47,101 -58,189 -48,389 6,130 10,175 22,265 3,19 7,67 11,105 3,39 8,86 11,105 17,100 94,356 155,517 22,56 39,106 39,110 0,4 6,20 14,34 7,14 16,38 20,54 4,16 18,52 31,80 32,67 103,252 111,290 4,17 10,35 14,40 4,6 13,33 20,60 7,28 16,55 20,60 4,6 10,21 13,35 3,14 17,57 31,95 14,39 26,84 26,102 0,18 7,36 16,41 9,5 17,27 19,53 8,79 18,134 25,144 14,20 30,81 35,140 2,33 9,87 15,120 11,63 13,271 5,510 -9,257 -14,329 -31,415 -9,47 -17,122 -19,166 l -2,82 72,-77 c 40,-42 94,-101 120,-131 128,-147 427,-457 472,-490 12,-8 52,-44 90,-80 90,-86 328,-268 361,-277 15,-3 41,-21 59,-38 25,-24 40,-31 58,-27 14,2 25,0 25,-5 0,-11 65,-40 95,-43 214,-18 419,-16 450,4 13,9 31,16 40,16 45,0 245,171 245,209 0,9 11,33 25,53 14,20 36,82 51,138 21,85 26,129 29,278 3,149 1,180 -12,194 -14,16 -14,21 1,52 13,28 15,52 10,118 -6,75 -16,108 -55,178 -4,8 -20,39 -34,69 -14,29 -38,69 -55,87 -16,19 -30,42 -30,52 -1,9 -12,35 -25,57 -14,22 -28,47 -31,55 -16,41 -30,62 -56,88 -16,15 -58,63 -95,107 -37,44 -73,84 -80,88 -7,4 -13,14 -13,21 0,15 -52,66 -68,66 -7,0 -12,6 -12,13 0,24 -183,193 -270,249 -105,68 -253,148 -275,148 -9,0 -26,7 -38,14 -33,22 -151,41 -252,40 -80,0 -98,-4 -158,-31 -80,-38 -144,-87 -164,-128 -9,-16 -19,-32 -22,-35 -17,-13 -69,-88 -79,-115 -15,-36 -8,-310 9,-383 6,-26 19,-94 29,-151 15,-86 25,-113 56,-160 20,-31 49,-74 63,-96 14,-22 35,-51 47,-65 12,-14 37,-53 54,-87 31,-60 67,-100 120,-134 14,-9 57,-45 95,-81 88,-81 121,-96 175,-78 29,10 73,11 161,7 l 121,-7 39,37 c 21,20 39,46 39,57 0,11 8,28 17,38 42,47 68,203 38,228 -8,7 -15,25 -15,41 0,15 -4,31 -10,34 -5,3 -10,12 -10,20 0,18 -42,83 -76,116 -25,25 -108,48 -139,39 -5,-1 -32,-8 -60,-16 -40,-10 -60,-24 -103,-70 -29,-32 -50,-64 -48,-71 11,-27 -21,-11 -60,30 -76,78 -254,373 -254,419 0,8 -4,18 -9,24 -27,27 -41,280 -19,330 12,26 14,26 80,21 52,-5 86,-15 150,-48 46,-22 95,-50 110,-60 14,-11 31,-19 36,-19 6,0 12,-4 14,-8 2,-5 29,-23 60,-41 32,-17 74,-50 95,-72 20,-21 40,-39 44,-39 3,0 31,-25 62,-55 31,-30 61,-55 67,-55 15,0 163,-155 235,-246 70,-89 147,-211 219,-348 53,-100 58,-116 66,-200 9,-93 13,-377 7,-431 -9,-74 -49,-111 -157,-145 -25,-7 -49,-17 -55,-21 -5,-4 -44,-7 -85,-8 -79,-1 -168,21 -269,66 -55,25 -173,100 -179,115 -2,4 -8,8 -14,8 -6,0 -30,17 -53,38 -23,20 -63,54 -89,74 -126,98 -376,341 -529,513 -44,50 -103,115 -132,145 -89,95 -306,353 -405,481 -91,117 -204,261 -326,414 -93,117 -135,177 -164,235 -15,30 -38,64 -49,74 -12,11 -29,35 -38,53 -20,43 -107,159 -175,235 -87,98 -91,102 -143,163 -27,32 -56,66 -63,77 -7,10 -19,18 -26,18 -8,0 -25,15 -39,33 -64,83 -314,307 -479,428 -57,42 -70,59 -45,59 17,0 360,-88 507,-130 41,-11 102,-24 135,-29 33,-4 74,-15 91,-24 17,-9 40,-14 51,-11 11,3 38,-3 59,-13 22,-11 57,-21 79,-22 22,-2 48,-7 57,-12 9,-5 28,-9 42,-9 15,0 34,-4 44,-9 18,-10 210,-43 272,-47 72,-5 156,-16 180,-24 14,-5 83,-16 154,-25 71,-9 170,-27 222,-40 85,-22 102,-24 207,-16 63,5 119,11 124,14 5,3 20,8 34,11 102,23 160,40 199,58 111,52 134,66 182,111 27,26 59,52 69,58 11,5 19,14 19,20 0,6 33,43 73,83 63,62 76,82 102,151 27,73 29,91 29,200 -1,103 -5,130 -28,195 -31,87 -48,122 -82,169 -13,19 -24,42 -24,52 0,10 -4,21 -10,24 -5,3 -10,15 -10,27 0,44 -249,306 -374,393 -32,22 -76,54 -99,72 -23,17 -67,46 -97,64 -30,17 -76,47 -101,65 -26,19 -53,34 -61,34 -9,0 -45,14 -81,30 -37,17 -74,30 -84,30 -15,0 -76,27 -176,78 -16,8 -31,11 -34,8 -4,-3 -13,0 -22,7 -15,12 -48,21 -241,63 -66,14 -419,46 -430,39 -4,-2 -58,-7 -121,-10 -318,-15 -455,-56 -647,-192 -120,-86 -252,-266 -252,-343 0,-17 -7,-41 -16,-55 -21,-32 -4,-125 31,-171 14,-18 25,-36 25,-41 0,-4 18,-30 40,-58 22,-27 40,-54 40,-58 0,-15 74,-97 87,-97 7,0 13,-3 13,-7 0,-5 12,-21 26,-38 15,-16 43,-53 64,-80 36,-49 52,-62 190,-162 108,-79 129,-92 176,-113 25,-12 62,-36 82,-55 27,-24 51,-35 87,-40 28,-4 68,-18 90,-32 l 40,-24 -40,6 c -54,8 -117,22 -195,41 -36,9 -83,20 -105,24 -22,5 -94,23 -160,40 -66,18 -145,39 -175,47 -30,8 -71,19 -90,24 -19,6 -51,14 -70,18 -91,22 -315,82 -405,109 -55,16 -111,32 -125,35 -14,2 -70,16 -125,31 -302,83 -513,129 -800,177 -105,17 -179,22 -380,24 -427,4 -407,0 -270,56 89,36 601,293 625,313 8,7 38,25 65,41 28,15 65,41 83,57 18,15 37,28 43,28 16,0 147,111 220,187 101,104 152,210 185,383 2,14 5,77 6,140 2,108 1,118 -25,168 -36,68 -83,116 -181,183 -43,29 -80,58 -83,65 -2,6 -31,18 -63,25 -43,9 -62,19 -71,36 -7,12 -26,27 -43,32 -27,8 -376,11 -461,3 z m 635,-249 c 116,-61 135,-92 132,-208 -3,-64 -27,-124 -130,-321 -19,-35 -91,-109 -99,-100 -10,9 -14,34 -17,91 -2,54 -12,88 -60,209 -42,106 -92,160 -198,213 -91,46 -128,58 -203,68 -27,4 -55,11 -62,17 -8,6 -23,6 -45,0 -18,-6 -70,-15 -114,-21 -204,-25 -473,-154 -597,-285 -72,-77 -101,-144 -105,-243 -4,-76 -2,-85 28,-142 43,-79 118,-169 150,-176 74,-18 59,-24 -55,-23 -177,3 -277,29 -341,89 -13,12 -33,27 -45,33 -12,6 -31,27 -41,47 -19,36 -19,38 2,99 62,184 176,330 338,434 40,25 76,46 80,46 4,0 26,13 50,29 23,16 62,32 85,36 23,3 62,12 87,20 135,40 226,62 285,70 71,9 145,24 157,31 7,5 40,7 74,6 37,-2 65,2 69,8 4,7 22,9 44,6 20,-3 92,-8 160,-11 68,-3 128,-8 133,-11 9,-6 60,6 113,26 26,9 48,3 125,-37 z m -462,-283 c 23,-12 42,-29 42,-37 0,-11 7,-14 24,-9 19,5 28,0 44,-26 20,-31 20,-33 2,-67 -10,-20 -34,-60 -54,-90 -20,-29 -36,-59 -36,-67 0,-8 -14,-26 -30,-41 -20,-18 -28,-32 -25,-44 5,-15 -7,-24 -58,-47 -36,-17 -82,-35 -103,-42 -22,-7 -43,-16 -48,-21 -6,-5 -17,-9 -26,-9 -9,0 -39,-11 -66,-25 -27,-14 -59,-25 -71,-25 -12,0 -34,-5 -49,-10 -39,-15 -40,-5 -4,27 82,72 98,104 67,135 -8,7 -20,30 -26,51 -7,20 -20,43 -30,49 -9,7 -20,21 -24,30 -3,10 -18,20 -32,24 -36,9 -115,-5 -122,-22 -3,-9 -21,-14 -53,-14 -38,0 -53,-5 -73,-26 -15,-14 -29,-35 -33,-46 -5,-16 -12,-19 -37,-14 -18,4 -38,13 -46,20 -12,12 -11,18 6,40 66,83 290,229 420,272 27,9 56,23 65,31 24,21 113,32 233,29 81,-2 108,-7 143,-26 z m 2804,-405 c 17,-8 46,-15 65,-15 19,0 42,-4 52,-10 10,-5 56,-19 102,-30 46,-12 99,-28 117,-36 18,-8 41,-13 51,-9 10,3 24,-1 31,-10 7,-8 18,-15 25,-15 21,0 108,-41 143,-67 18,-13 40,-23 50,-21 20,5 124,-47 229,-115 24,-15 51,-27 61,-27 10,0 36,-15 58,-34 21,-18 53,-40 71,-49 17,-9 34,-25 38,-36 3,-11 19,-21 38,-25 23,-4 55,-30 115,-93 45,-48 81,-92 78,-99 -2,-6 15,-22 39,-34 25,-13 42,-26 40,-30 -2,-4 6,-12 19,-18 19,-8 22,-16 18,-37 -2,-15 0,-30 5,-34 5,-3 13,-21 16,-38 5,-25 3,-33 -8,-33 -8,0 -15,-7 -15,-15 0,-9 6,-12 15,-9 8,4 15,1 15,-5 0,-6 -4,-11 -9,-11 -5,0 -7,-50 -4,-118 6,-116 5,-118 -21,-149 -14,-17 -26,-37 -26,-45 0,-14 -71,-78 -85,-78 -4,0 -21,-10 -38,-22 -41,-30 -79,-49 -84,-44 -2,2 5,24 15,48 23,49 42,142 42,204 0,38 -22,115 -67,239 -28,74 -47,106 -90,146 -32,31 -240,181 -277,200 -6,3 -20,10 -31,16 -11,5 -74,38 -140,73 -66,35 -163,79 -215,98 -52,19 -124,45 -160,58 -36,13 -92,29 -125,35 -33,6 -69,14 -80,19 -55,23 -271,52 -370,49 -71,-2 -144,-18 -166,-36 -9,-7 -36,-19 -60,-26 -84,-24 -161,-173 -185,-355 l -14,-103 29,-62 c 16,-34 28,-64 26,-65 -7,-8 -73,30 -120,69 -28,22 -66,53 -87,70 -53,43 -160,155 -208,219 l -41,55 6,69 c 4,39 15,86 25,105 27,53 118,136 175,161 28,12 75,35 106,51 31,16 66,29 78,29 12,0 38,7 59,16 20,9 51,17 67,19 120,11 261,28 265,32 3,3 74,3 158,0 108,-4 162,-11 184,-22 z m -1132,-332 c -18,-68 -34,-80 -26,-19 6,46 23,82 34,72 3,-3 -1,-27 -8,-53 z m -4380,44 c 0,-1 9,-27 20,-57 30,-81 28,-241 -2,-321 -13,-32 -26,-59 -29,-59 -3,0 -9,23 -12,51 -9,70 -50,149 -109,208 -41,41 -59,52 -106,62 -31,6 -75,9 -99,5 -25,-3 -42,-2 -39,3 10,15 177,82 241,96 53,12 135,19 135,12 z m 5435,-236 c 128,-20 294,-67 385,-108 30,-14 102,-41 160,-60 160,-54 249,-90 291,-118 21,-14 42,-25 46,-25 8,0 109,-66 134,-87 8,-7 34,-31 59,-52 77,-67 83,-144 18,-249 -20,-32 -89,-72 -124,-72 -8,0 -14,-4 -14,-9 0,-5 -17,-11 -37,-14 -21,-3 -65,-13 -98,-22 -47,-12 -84,-15 -175,-10 -63,4 -126,9 -140,11 -14,3 -43,7 -65,10 -22,3 -54,12 -72,20 -17,8 -37,14 -45,14 -15,0 -120,34 -153,50 -11,5 -54,21 -95,36 -41,15 -96,37 -122,50 -26,13 -54,24 -63,24 -8,0 -15,4 -15,9 0,13 89,22 110,11 10,-6 27,-10 38,-10 11,0 31,-9 45,-20 36,-28 77,-25 125,10 46,33 56,69 56,195 -1,116 -53,190 -174,247 -57,28 -160,45 -160,27 0,-5 -6,-9 -12,-7 -23,5 -88,-53 -88,-78 0,-27 -16,-30 -44,-9 -11,8 -27,15 -35,15 -9,0 -27,9 -41,20 -14,11 -32,20 -40,20 -20,0 -51,53 -57,95 -2,19 2,46 11,64 13,25 24,31 63,36 27,4 51,7 56,8 14,4 212,-13 272,-22 z m -5687,-12 c 25,-10 52,-63 52,-104 0,-36 -11,-31 -45,23 -18,28 -39,48 -52,50 -22,3 -137,-29 -173,-48 -26,-14 -25,-6 3,26 12,14 45,37 72,49 50,23 88,24 143,4 z m -388,-116 c 6,-32 13,-67 15,-78 3,-11 20,-38 40,-59 19,-22 35,-43 35,-48 0,-4 9,-8 20,-8 10,0 24,-9 30,-20 9,-17 6,-20 -32,-31 -53,-14 -142,-6 -186,16 -18,9 -39,29 -47,45 -15,29 -8,47 84,218 19,35 29,26 41,-35 z m 259,-642 c -17,-17 -34,-31 -37,-31 -7,0 28,41 48,57 29,22 21,4 -11,-26 z m -44,-51 c -3,-5 -16,-15 -28,-21 -22,-12 -22,-12 -3,10 19,21 43,30 31,11 z m 3620,-40 c 4,-6 10,-8 15,-5 5,3 35,-4 67,-15 113,-41 227,-103 297,-164 39,-34 88,-74 109,-89 67,-51 71,-64 40,-135 -15,-34 -35,-64 -43,-66 -8,-3 -46,-6 -84,-8 l -69,-3 -1,60 c -2,47 -9,74 -36,124 -38,70 -61,89 -147,116 -32,10 -68,22 -80,28 -13,6 -49,7 -87,3 -41,-4 -67,-3 -71,4 -9,14 -25,2 -19,-14 3,-7 -11,-27 -31,-45 -23,-20 -46,-54 -60,-92 -22,-54 -23,-65 -13,-122 6,-34 17,-67 25,-73 7,-6 13,-15 13,-20 0,-17 74,-68 134,-92 34,-13 68,-30 76,-37 8,-7 40,-18 70,-25 30,-7 62,-16 71,-21 29,-15 246,-49 317,-50 92,-1 177,29 216,77 38,48 66,137 69,214 1,52 -4,76 -26,122 -15,31 -32,63 -39,70 -7,8 -38,40 -68,72 -45,48 -50,57 -30,51 27,-8 102,-59 161,-109 19,-17 55,-47 79,-66 60,-48 180,-159 210,-195 14,-16 35,-40 48,-54 12,-13 22,-27 22,-31 0,-4 11,-20 25,-36 34,-39 38,-60 33,-167 -4,-75 -11,-106 -37,-167 -18,-41 -41,-97 -51,-123 -21,-54 -68,-112 -114,-141 -17,-11 -64,-27 -104,-36 -104,-22 -314,-4 -456,41 -123,38 -327,136 -392,187 -27,21 -69,52 -94,69 -88,61 -378,366 -488,514 -65,87 -103,163 -73,145 7,-5 11,1 11,17 0,14 7,30 15,37 8,7 15,19 15,27 0,23 82,93 111,93 15,0 36,11 50,26 13,15 44,36 69,47 25,11 47,24 50,28 16,24 282,50 295,29 z M 8604,7449 c -31,-32 -140,-105 -239,-158 -49,-27 -67,-32 -100,-28 -39,6 -143,-4 -197,-18 -18,-5 -28,-3 -28,4 0,12 220,120 285,140 22,7 58,21 80,30 70,31 160,58 204,60 l 25,1 z m 501,-229 c 3,-5 -3,-10 -14,-10 -12,0 -21,5 -21,10 0,6 6,10 14,10 8,0 18,-4 21,-10 z m 5892,-2277 c -9,-9 -19,-14 -23,-11 -10,10 6,28 24,28 15,0 15,-1 -1,-17 z"
         id="path7977"
         style="fill:#46857d;fill-opacity:1" />
      <path
         d="m 5836,9151 c -16,-18 -16,-20 5,-35 22,-15 59,-7 59,14 0,41 -35,53 -64,21 z"
         id="path7979"
         style="fill:#46857d;fill-opacity:1" />
    </g>
  </g>
</svg>
