<?xml version="1.0" encoding="UTF-8" standalone="no"?>
<svg
   xmlns:dc="http://purl.org/dc/elements/1.1/"
   xmlns:cc="http://creativecommons.org/ns#"
   xmlns:rdf="http://www.w3.org/1999/02/22-rdf-syntax-ns#"
   xmlns:svg="http://www.w3.org/2000/svg"
   xmlns="http://www.w3.org/2000/svg"
   width="4.7183485mm"
   height="9.4421806mm"
   viewBox="0 0 4.7183485 9.4421806"
   version="1.1"
   id="svg6435">
  <defs
     id="defs6429" />
  <metadata
     id="metadata6432">
    <rdf:RDF>
      <cc:Work
         rdf:about="">
        <dc:format>image/svg+xml</dc:format>
        <dc:type
           rdf:resource="http://purl.org/dc/dcmitype/StillImage" />
        <dc:title></dc:title>
      </cc:Work>
    </rdf:RDF>
  </metadata>
  <g
     id="layer1"
     transform="translate(-103.47437,-145.8077)">
    <g
       id="Layer_x0020_1"
       style="clip-rule:evenodd;display:inline;fill-rule:evenodd;image-rendering:optimizeQuality;shape-rendering:geometricPrecision;text-rendering:geometricPrecision"
       transform="matrix(0.00408927,0,0,0.00408927,99.549719,144.69151)">
      <path
         class="fil0"
         d="M 1660.4066,1095.257 V 726.02698 h -453.4839 l 129.6849,129.68482 c 17.3463,17.34637 17.3463,44.60497 0,61.95134 l -270.1079,270.10786 132.9889,132.9889 270.1078,-270.1079 c 17.3464,-17.3463 44.605,-17.3463 61.9514,0 l 129.6848,129.6848 V 1096.083 Z M 1295.3067,638.46908 V 317.1481 c 0,-23.95452 19.8244,-43.77895 43.7789,-43.77895 h 730.1999 c 23.9545,0 43.779,19.82443 43.779,43.77895 v 968.093 c 0,23.9545 -19.8245,43.7789 -43.779,43.7789 h -730.1999 c -7.4342,0 -14.0423,-1.652 -19.8244,-4.9561 l -89.21,89.21 c -17.3463,17.3463 -44.6049,17.3463 -61.9513,0 L 973.15967,1218.3336 c -17.34638,-17.3463 -17.34638,-44.6049 0,-61.9513 L 1243.2675,886.27446 1069.8038,712.81069 c -27.2586,-27.25859 -8.2602,-74.34161 30.5626,-74.34161 h 194.1142 z m 87.5579,0 h 334.5372 c 10.7383,3.30407 18.9984,12.39027 24.7806,21.47647 h 170.1597 c 57.8213,0 57.8213,87.5579 0,87.5579 h -164.3776 v 105.73029 h 164.3776 c 57.8213,0 57.8213,87.55791 0,87.55791 h -164.3776 v 105.73025 h 164.3776 c 57.8213,0 57.8213,87.5579 0,87.5579 h -164.3776 v 105.7303 h 277.5421 V 359.27501 h -642.642 v 277.54203 z m 18.9984,602.16702 h 196.5922 l -98.2961,-98.2961 z m 94.992,-686.42085 c -57.8212,0 -57.8212,-87.5579 0,-87.5579 h 415.4871 c 57.8213,0 57.8213,87.5579 0,87.5579 z"
         id="path6"
         style="fill:#003d59;fill-opacity:1;stroke:#003d59;stroke-width:0.826018;stroke-opacity:1" />
    </g>
    <g
       id="g834"
       style="clip-rule:evenodd;display:inline;fill-rule:evenodd;image-rendering:optimizeQuality;shape-rendering:geometricPrecision;text-rendering:geometricPrecision"
       transform="matrix(0.00408927,0,0,0.00408927,99.550136,149.41576)">
      <path
         class="fil0"
         d="M 1660.4066,1095.257 V 726.02698 h -453.4839 l 129.6849,129.68482 c 17.3463,17.34637 17.3463,44.60497 0,61.95134 l -270.1079,270.10786 132.9889,132.9889 270.1078,-270.1079 c 17.3464,-17.3463 44.605,-17.3463 61.9514,0 l 129.6848,129.6848 V 1096.083 Z M 1295.3067,638.46908 V 317.1481 c 0,-23.95452 19.8244,-43.77895 43.7789,-43.77895 h 730.1999 c 23.9545,0 43.779,19.82443 43.779,43.77895 v 968.093 c 0,23.9545 -19.8245,43.7789 -43.779,43.7789 h -730.1999 c -7.4342,0 -14.0423,-1.652 -19.8244,-4.9561 l -89.21,89.21 c -17.3463,17.3463 -44.6049,17.3463 -61.9513,0 L 973.15967,1218.3336 c -17.34638,-17.3463 -17.34638,-44.6049 0,-61.9513 L 1243.2675,886.27446 1069.8038,712.81069 c -27.2586,-27.25859 -8.2602,-74.34161 30.5626,-74.34161 h 194.1142 z m 87.5579,0 h 334.5372 c 10.7383,3.30407 18.9984,12.39027 24.7806,21.47647 h 170.1597 c 57.8213,0 57.8213,87.5579 0,87.5579 h -164.3776 v 105.73029 h 164.3776 c 57.8213,0 57.8213,87.55791 0,87.55791 h -164.3776 v 105.73025 h 164.3776 c 57.8213,0 57.8213,87.5579 0,87.5579 h -164.3776 v 105.7303 h 277.5421 V 359.27501 h -642.642 v 277.54203 z m 18.9984,602.16702 h 196.5922 l -98.2961,-98.2961 z m 94.992,-686.42085 c -57.8212,0 -57.8212,-87.5579 0,-87.5579 h 415.4871 c 57.8213,0 57.8213,87.5579 0,87.5579 z"
         id="path832"
         style="fill:#fe6625;fill-opacity:1;stroke:#003d59;stroke-width:0.826018;stroke-opacity:1" />
    </g>
  </g>
</svg>
