<svg version="1" xmlns="http://www.w3.org/2000/svg" width="933.333" height="933.333" viewBox="0 0 700.000000 700.000000"><path d="M0 350v350h700V0H0v350zM370.1 58.1c33.4 3.4 61.4 13.3 87.5 30.8 36.4 24.4 61.2 57.5 69.9 93.1 8.6 35.6 4.4 74.4-11 101.4-14.9 26.2-41.6 46.8-94 72.8-42 20.8-52.3 26.8-65.3 37.9-21.5 18.3-26.4 34.8-18 60.9 14.4 45 77.5 96.2 178.3 144.6 10.2 4.9 18.5 9.2 18.5 9.6 0 .6-20.2 30.5-22.7 33.7-.4.6-35.2-12.3-63.3-23.4-60.5-24-92.1-41.1-135.7-73.6-20.4-15.3-31.4-24.8-50.3-43.8-50.9-50.9-81.3-105.4-94.4-169.1-7.5-36.3-8.4-79.2-2.5-114 7.8-45.9 25.8-82.1 55.9-112 29.5-29.4 65.1-45.5 108.5-49.3 9.2-.8 29-.6 38.6.4z"/></svg>